<svg width="30" height="25" viewBox="0 0 30 25" fill="none" xmlns="http://www.w3.org/2000/svg">
<path fill-rule="evenodd" clip-rule="evenodd" d="M28.6579 19.213V20.6019C28.6579 23.1626 26.2893 25 23.7237 25H4.93421C2.34761 25 0 23.1561 0 20.6019V4.39815C0 1.84391 2.34761 0 4.93421 0H23.7237C26.2893 0 28.6579 1.83739 28.6579 4.39815V5.78704H30V19.213H28.6579ZM13.1565 19.213C13.5102 19.3612 13.9078 19.4444 14.3289 19.4444H26.4079V20.6019C26.4079 20.9306 26.3274 21.2439 26.1825 21.5278C25.7663 22.3435 24.8188 22.9167 23.7237 22.9167H4.93421C3.44447 22.9167 2.25 21.875 2.25 20.6019V4.39815C2.25 3.125 3.44447 2.08333 4.93421 2.08333H23.7237C24.8188 2.08333 25.7663 2.65653 26.1825 3.47222C26.3274 3.75614 26.4079 4.06943 26.4079 4.39815V5.55556H14.3289C13.9078 5.55556 13.5102 5.63882 13.1565 5.78704C12.7162 5.97159 12.3439 6.25686 12.0789 6.60748C11.8041 6.97125 11.6447 7.40537 11.6447 7.87037V17.1296C11.6447 17.5946 11.8041 18.0288 12.0789 18.3925C12.3439 18.7431 12.7162 19.0284 13.1565 19.213ZM27.75 17.1296H14.3289V7.87037H27.75V17.1296ZM19.8065 12.2038C19.7533 12.1578 19.7083 12.1528 19.6974 12.1528C19.6864 12.1528 19.6414 12.1578 19.5882 12.2038C19.5319 12.2523 19.4605 12.3573 19.4605 12.5C19.4605 12.6427 19.5319 12.7477 19.5882 12.7962C19.6414 12.8421 19.6864 12.8472 19.6974 12.8472C19.7083 12.8472 19.7533 12.8421 19.8065 12.7962C19.8628 12.7477 19.9342 12.6427 19.9342 12.5C19.9342 12.3573 19.8628 12.2523 19.8065 12.2038ZM17.6842 12.5C17.6842 13.4606 18.5834 14.2361 19.6974 14.2361C20.8113 14.2361 21.7105 13.4606 21.7105 12.5C21.7105 11.5394 20.8113 10.7639 19.6974 10.7639C18.5834 10.7639 17.6842 11.5394 17.6842 12.5Z" fill="url(#paint0_linear_523_981)"/>
<defs>
<linearGradient id="paint0_linear_523_981" x1="25.9091" y1="28.2383" x2="12.1466" y2="-3.10829" gradientUnits="userSpaceOnUse">
<stop stop-color="#5C52B3"/>
<stop offset="0.588542" stop-color="#4478D0"/>
<stop offset="1" stop-color="#1EB4FF"/>
</linearGradient>
</defs>
</svg>
