<svg width="32" height="18" viewBox="0 0 32 18" fill="none" xmlns="http://www.w3.org/2000/svg">
<path id="Vector" d="M28.8 5.96708e-08H10.2632C9.84287 -7.85453e-05 9.42668 0.0775039 9.03838 0.228313C8.65008 0.379121 8.29729 0.600199 8.00019 0.878906L0.468746 7.93922C-0.156249 8.52516 -0.156249 9.47484 0.468746 10.0603L8.00019 17.1211C8.60018 17.6836 9.41418 18 10.2627 18H28.8C30.5675 18 32 16.657 32 15V3C32 1.34297 30.5675 5.96708e-08 28.8 5.96708e-08ZM24.5656 11.9091C24.8781 12.202 24.8781 12.6769 24.5656 12.9698L23.4346 14.0302C23.1221 14.3231 22.6156 14.3231 22.3031 14.0302L19.2001 11.1211L16.0971 14.0302C15.7846 14.3231 15.2781 14.3231 14.9656 14.0302L13.8346 12.9698C13.5221 12.6769 13.5221 12.202 13.8346 11.9091L16.9376 9L13.8346 6.09094C13.5221 5.79797 13.5221 5.32312 13.8346 5.03016L14.9656 3.96984C15.2781 3.67688 15.7846 3.67688 16.0971 3.96984L19.2001 6.87891L22.3031 3.96984C22.6156 3.67688 23.1221 3.67688 23.4346 3.96984L24.5656 5.03016C24.8781 5.32312 24.8781 5.79797 24.5656 6.09094L21.4626 9L24.5656 11.9091Z" fill="#E52020"/>
</svg>
