<svg width="35" height="26" viewBox="0 0 35 26" fill="none" xmlns="http://www.w3.org/2000/svg">
<path id="Vector" d="M31.0625 0C33.2371 0 35 1.63649 35 3.6552V22.3448C35 24.3634 33.2371 26 31.0625 26H3.9375C1.76288 26 0 24.3634 0 22.3448V3.6552C0 1.63649 1.76288 0 3.9375 0H31.0625ZM31.0625 2.4368H3.9375C3.21263 2.4368 2.625 2.9823 2.625 3.6552V22.3448C2.625 23.0177 3.21263 23.5632 3.9375 23.5632H31.0625C31.7874 23.5632 32.375 23.0177 32.375 22.3448V3.6552C32.375 2.9823 31.7874 2.4368 31.0625 2.4368ZM19.6915 14.6145H27.5625C28.2874 14.6145 28.875 15.16 28.875 15.8329C28.875 16.4497 28.3812 16.9595 27.7407 17.0402L27.5625 17.0513H19.6915C18.9667 17.0513 18.379 16.5059 18.379 15.8329C18.379 15.216 18.8727 14.7062 19.5134 14.6257L19.6915 14.6145ZM19.6915 8.93493H27.5625C28.2874 8.93493 28.875 9.48043 28.875 10.1533C28.875 10.7702 28.3812 11.2799 27.7407 11.3607L27.5625 11.3717H19.6915C18.9667 11.3717 18.379 10.8262 18.379 10.1533C18.379 9.5365 18.8727 9.02673 19.5134 8.94606L19.6915 8.93493Z" fill="url(#paint0_linear_1_2476)"/>
<defs>
<linearGradient id="paint0_linear_1_2476" x1="30.2273" y1="29.3679" x2="17.0303" y2="-4.35167" gradientUnits="userSpaceOnUse">
<stop stop-color="#5C52B3"/>
<stop offset="0.588542" stop-color="#4478D0"/>
<stop offset="1" stop-color="#1EB4FF"/>
</linearGradient>
</defs>
</svg>
