<svg width="99" height="81" viewBox="0 0 99 81" fill="none" xmlns="http://www.w3.org/2000/svg">
<g id="icon">
<path id="Vector" d="M54.2497 43.7487L54.6356 43.0554L50.8729 42.6593C50.8069 42.6523 50.6983 42.6371 50.5601 42.6178C50.0883 42.5518 49.2709 42.4375 48.6215 42.4375H46.3301H45.7761L45.274 42.6715C42.4678 43.9794 39.4155 44.6562 36.3273 44.6562C33.2392 44.6562 30.1869 43.9794 27.3806 42.6715L26.8785 42.4375H26.3246H24.0331H24.0325C18.4705 42.4388 13.142 44.6726 9.21724 48.6391C5.29333 52.6048 3.09303 57.9775 3.0918 63.5744V63.575V69.3438C3.0918 71.7636 4.04273 74.0897 5.74375 75.8088C7.44566 77.5288 9.75959 78.5 12.178 78.5H50.7209H55.0886L54.3677 77.2726C55.5085 78.065 56.8711 78.5 58.2813 78.5H89.0168C90.8529 78.5 92.6085 77.7626 93.8987 76.4587C95.188 75.1556 95.9076 73.3939 95.9076 71.5625V49.375C95.9076 47.5436 95.188 45.7819 93.8987 44.4788C92.6085 43.1749 90.8529 42.4375 89.0168 42.4375H87.126V33.8438C87.126 30.247 85.7125 26.7922 83.188 24.2409C80.6627 21.6887 77.2319 20.25 73.649 20.25C70.0661 20.25 66.6354 21.6887 64.11 24.2409C61.5856 26.7922 60.1721 30.247 60.1721 33.8438V42.4375H58.2813C56.8222 42.4375 55.414 42.9032 54.2497 43.7487ZM36.3273 43C40.3014 43 44.184 41.8089 47.484 39.5804C50.7837 37.3522 53.3515 34.1879 54.8668 30.4907C56.382 26.7938 56.7781 22.7273 56.006 18.8044C55.2338 14.8813 53.3273 11.2742 50.5234 8.44047C47.7193 5.6065 44.1434 3.6735 40.2464 2.8901C36.3493 2.10667 32.3101 2.509 28.6408 4.04506C24.9718 5.58099 21.8401 8.18019 19.6387 11.5099C17.4375 14.8392 16.2642 18.7508 16.2642 22.75C16.2642 28.1122 18.3716 33.2599 22.1312 37.0595C25.8917 40.86 30.9977 43 36.3273 43ZM73.649 62.4063C73.281 62.4063 72.919 62.2961 72.6087 62.0866C72.2981 61.8768 72.0521 61.5759 71.9057 61.2188C71.7593 60.8615 71.7206 60.4668 71.7956 60.0858C71.8705 59.7049 72.0549 59.3587 72.3214 59.0894C72.5876 58.8203 72.9235 58.6402 73.2851 58.5675C73.6467 58.4948 74.0217 58.5319 74.3639 58.6751C74.7065 58.8185 75.0035 59.0631 75.2144 59.3822C75.4255 59.7015 75.5398 60.0797 75.5398 60.4688C75.5398 60.9911 75.3343 61.4868 74.9767 61.8481C74.62 62.2086 74.1419 62.4063 73.649 62.4063ZM75.5398 42.4375H71.7582V33.8438C71.7582 33.3214 71.9638 32.8257 72.3214 32.4644C72.6781 32.1039 73.1562 31.9063 73.649 31.9063C74.1419 31.9063 74.62 32.1039 74.9767 32.4644C75.3343 32.8257 75.5398 33.3214 75.5398 33.8438V42.4375Z" stroke="#DEDEDE" stroke-width="5"/>
</g>
</svg>
