<svg width="37" height="28" viewBox="0 0 37 28" fill="none" xmlns="http://www.w3.org/2000/svg">
<g id="withdraw 1">
<g id="Page 1">
<g id="withdrawal">
<path id="Rectangle" d="M6.28892 2.19217V4.38435H33.9292V2.19217H6.28892ZM6.28892 0H33.9292C35.6254 0 37.0004 0.981469 37.0004 2.19217V4.38435C37.0004 5.59505 35.6254 6.57652 33.9292 6.57652H6.28892C4.59277 6.57652 3.21777 5.59505 3.21777 4.38435V2.19217C3.21777 0.981469 4.59277 0 6.28892 0Z" fill="url(#paint0_linear_1_2462)"/>
<path id="Rectangle_2" d="M30.8585 6.07816H9.36052V24.7116C9.36052 25.317 10.048 25.8077 10.8961 25.8077H29.323C30.171 25.8077 30.8585 25.317 30.8585 24.7116V6.07816ZM33.9297 24.7116C33.9297 26.5277 31.8672 27.9999 29.323 27.9999H10.8961C8.35187 27.9999 6.28937 26.5277 6.28937 24.7116V3.88599H33.9297V24.7116Z" fill="url(#paint1_linear_1_2462)"/>
<path id="Path 11" d="M23.1808 11.2599C24.0289 11.2599 24.7164 11.7506 24.7164 12.356C24.7164 12.9613 24.0289 13.4521 23.1808 13.4521L19.3419 13.4521C18.9178 13.4521 18.5741 13.6974 18.5741 14.0001C18.5741 14.3028 18.9178 14.5481 19.3419 14.5481L20.8774 14.5481C22.9976 14.5481 24.7164 15.775 24.7164 17.2884C24.7164 18.8017 22.9976 20.0286 20.8774 20.0286L17.0385 20.0286C16.1904 20.0286 15.5029 19.5378 15.5029 18.9325C15.5029 18.3271 16.1904 17.8364 17.0385 17.8364L20.8774 17.8364C21.3015 17.8364 21.6452 17.591 21.6452 17.2884C21.6452 16.9857 21.3015 16.7403 20.8774 16.7403L19.3419 16.7403C17.2217 16.7403 15.5029 15.5135 15.5029 14.0001C15.5029 12.4867 17.2217 11.2599 19.3419 11.2599L23.1808 11.2599Z" fill="#1380FF"/>
<path id="Path 12" d="M18.5742 10.1637C18.5742 9.55836 19.2617 9.06763 20.1098 9.06763C20.9579 9.06763 21.6454 9.55836 21.6454 10.1637L21.6454 12.3559C21.6454 12.9612 20.9579 13.452 20.1098 13.452C19.2617 13.452 18.5742 12.9612 18.5742 12.3559L18.5742 10.1637Z" fill="#1380FF"/>
<path id="Path 13" d="M21.6454 21.1249C21.6454 21.7303 20.9579 22.221 20.1098 22.221C19.2617 22.221 18.5742 21.7303 18.5742 21.1249L18.5742 18.9328C18.5742 18.3274 19.2617 17.8367 20.1098 17.8367C20.9579 17.8367 21.6454 18.3274 21.6454 18.9328L21.6454 21.1249Z" fill="#1380FF"/>
</g>
</g>
</g>
<defs>
<linearGradient id="paint0_linear_1_2462" x1="32.3937" y1="7.4284" x2="31.3954" y2="-2.30479" gradientUnits="userSpaceOnUse">
<stop stop-color="#5C52B3"/>
<stop offset="0.588542" stop-color="#4478D0"/>
<stop offset="1" stop-color="#1EB4FF"/>
</linearGradient>
<linearGradient id="paint1_linear_1_2462" x1="2.70902" y1="24.7116" x2="32.9999" y2="6.41902" gradientUnits="userSpaceOnUse">
<stop stop-color="#5C52B3"/>
<stop offset="0.588542" stop-color="#4478D0"/>
<stop offset="1" stop-color="#1EB4FF"/>
</linearGradient>
</defs>
</svg>
