<svg width="41" height="41" viewBox="0 0 41 41" fill="none" xmlns="http://www.w3.org/2000/svg">
<rect x="0.5" y="0.5" width="40" height="40" rx="11.5" fill="white" stroke="#E8ECF4"/>
<path d="M23.1573 13.3671C23.0654 13.275 22.9562 13.2019 22.836 13.152C22.7157 13.1021 22.5869 13.0764 22.4567 13.0764C22.3265 13.0764 22.1976 13.1021 22.0774 13.152C21.9572 13.2019 21.848 13.275 21.7561 13.3671L15.1773 19.9459C15.1039 20.0191 15.0457 20.1061 15.006 20.2019C14.9662 20.2977 14.9458 20.4003 14.9458 20.504C14.9458 20.6077 14.9662 20.7104 15.006 20.8061C15.0457 20.9019 15.1039 20.9889 15.1773 21.0621L21.7561 27.6409C22.144 28.0288 22.7694 28.0288 23.1573 27.6409C23.5452 27.253 23.5452 26.6276 23.1573 26.2396L17.4257 20.5001L23.1652 14.7605C23.5452 14.3805 23.5452 13.7471 23.1573 13.3671Z" fill="#1E232C" stroke="#1E232C" stroke-width="0.2"/>
</svg>
