<svg width="22" height="20" viewBox="0 0 22 20" fill="none" xmlns="http://www.w3.org/2000/svg">
<g id="btnNotifications">
<g id="bell">
<path id="shape01" d="M10.5243 2.96024C10.0924 2.96024 9.74182 2.62833 9.74182 2.21938V1.47853C9.74182 1.06957 10.0924 0.737671 10.5243 0.737671C10.9562 0.737671 11.3067 1.06957 11.3067 1.47853V2.21938C11.3067 2.62833 10.9562 2.96024 10.5243 2.96024Z" fill="white"/>
<path id="shape02" d="M17.3526 9.42612C16.9207 9.42612 16.5702 9.09422 16.5702 8.68526C16.5702 5.67443 13.9881 3.10885 10.8146 2.9666C7.63714 2.82769 4.80435 5.14472 4.50507 8.13814C4.48707 8.31706 4.47807 8.50079 4.47807 8.68526C4.47807 9.09422 4.12754 9.42612 3.69564 9.42612C3.26374 9.42612 2.91321 9.09422 2.91321 8.68526C2.91321 8.45412 2.92455 8.22297 2.94724 7.99849C3.32398 4.22902 6.8907 1.30857 10.8885 1.48674C14.8844 1.66566 18.135 4.89505 18.135 8.68526C18.135 9.09459 17.7845 9.42612 17.3526 9.42612Z" fill="white"/>
<path id="shape03" d="M18.8186 14.479C18.6257 14.479 18.4321 14.4116 18.2807 14.2764C17.1931 13.3014 16.5691 11.9286 16.5691 10.5103C16.5691 10.1013 16.9196 9.76941 17.3515 9.76941C17.7834 9.76941 18.134 10.1013 18.134 10.5103C18.134 11.5234 18.5795 12.5043 19.3565 13.2003C19.6703 13.4815 19.6839 13.9504 19.387 14.2479C19.2333 14.4012 19.0259 14.479 18.8186 14.479Z" fill="white"/>
<path id="shape04" d="M2.2289 14.479C2.02116 14.479 1.81421 14.4016 1.66046 14.2475C1.36353 13.9504 1.37722 13.4815 1.69098 13.2003C2.46793 12.5043 2.91353 11.5238 2.91353 10.5103C2.91353 10.1013 3.26406 9.76941 3.69596 9.76941C4.12786 9.76941 4.47839 10.1013 4.47839 10.5103C4.47839 11.9294 3.8544 13.3022 2.76682 14.2764C2.61503 14.4116 2.42177 14.479 2.2289 14.479Z" fill="white"/>
<path id="shape05" d="M10.5243 19.9999C8.40395 19.9999 6.61218 18.3034 6.61218 16.2957C6.61218 15.8867 6.96271 15.5548 7.39461 15.5548C7.82652 15.5548 8.17704 15.8867 8.17704 16.2957C8.17704 17.5003 9.2521 18.5182 10.5243 18.5182C11.7966 18.5182 12.8716 17.5003 12.8716 16.2957C12.8716 15.8867 13.2222 15.5548 13.6541 15.5548C14.086 15.5548 14.4365 15.8867 14.4365 16.2957C14.4365 18.3034 12.6447 19.9999 10.5243 19.9999Z" fill="white"/>
<path id="shape06" d="M3.30394 17.0366C2.35055 17.0366 1.50239 16.4846 1.14286 15.6304C0.782945 14.7751 0.997722 13.8213 1.69017 13.2004C2.00393 12.9189 2.49882 12.9319 2.79653 13.229C3.09346 13.526 3.08016 13.995 2.76641 14.2765C2.4237 14.584 2.54967 14.9711 2.59662 15.0822C2.64317 15.1926 2.83213 15.5549 3.30394 15.5549C3.73584 15.5549 4.08637 15.8868 4.08637 16.2957C4.08637 16.7047 3.73623 17.0366 3.30394 17.0366Z" fill="white"/>
<path id="shape07" d="M17.7439 17.0365C17.312 17.0365 16.9614 16.7046 16.9614 16.2956C16.9614 15.8867 17.312 15.5548 17.7439 15.5548C18.2161 15.5548 18.4054 15.191 18.4523 15.0795C18.4989 14.9688 18.6245 14.5832 18.2818 14.2761C17.968 13.9946 17.9543 13.526 18.2513 13.2285C18.5486 12.9314 19.0435 12.9185 19.3576 13.1996C20.0501 13.8205 20.2652 14.7736 19.9061 15.6274C19.5462 16.4835 18.6972 17.0365 17.7439 17.0365Z" fill="white"/>
<path id="shape08" d="M3.69564 11.2508C3.26374 11.2508 2.91321 10.9189 2.91321 10.5099V8.68519C2.91321 8.27624 3.26374 7.94434 3.69564 7.94434C4.12755 7.94434 4.47808 8.27624 4.47808 8.68519V10.5099C4.47808 10.9189 4.12794 11.2508 3.69564 11.2508Z" fill="white"/>
<path id="shape09" d="M17.3515 11.2508C16.9196 11.2508 16.5691 10.9189 16.5691 10.5099V8.68519C16.5691 8.27624 16.9196 7.94434 17.3515 7.94434C17.7834 7.94434 18.134 8.27624 18.134 8.68519V10.5099C18.134 10.9189 17.7834 11.2508 17.3515 11.2508Z" fill="white"/>
<path id="shape10" d="M17.7431 17.0365H3.30331C2.8714 17.0365 2.52087 16.7046 2.52087 16.2957C2.52087 15.8867 2.8714 15.5548 3.30331 15.5548H17.7427C18.1746 15.5548 18.5251 15.8867 18.5251 16.2957C18.5251 16.7046 18.175 17.0365 17.7431 17.0365Z" fill="white"/>
</g>
<ellipse id="dot" cx="17.3055" cy="4.93586" rx="4.69459" ry="4.44513" fill="#C823D3"/>
</g>
</svg>
