<svg width="214" height="215" viewBox="0 0 214 215" fill="none" xmlns="http://www.w3.org/2000/svg">
<path d="M6.82979 138.519C7.03366 139.202 6.65989 139.919 5.98031 140.124C5.8444 140.158 5.74246 140.192 5.60654 140.192C5.06288 140.192 4.55319 139.817 4.3833 139.27C3.90759 137.597 3.43188 135.924 3.02413 134.251C2.85424 133.568 3.26199 132.851 3.97555 132.681C4.65513 132.51 5.36869 132.92 5.53858 133.637C5.91235 135.241 6.35408 136.914 6.82979 138.519ZM3.32995 121.618C2.85424 117.623 2.58241 113.526 2.58241 109.429C2.58241 108.712 2.00476 108.132 1.2912 108.132C0.577644 108.132 0 108.712 0 109.429C0.033979 113.595 0.271832 117.794 0.781518 121.891C0.849476 122.54 1.42712 123.018 2.03874 123.018C2.1067 123.018 2.14068 123.018 2.20864 123.018C2.9222 122.95 3.3979 122.335 3.32995 121.618ZM1.80089 98.4008C1.83487 98.4008 1.90283 98.4008 1.93681 98.4008C2.58241 98.4008 3.12607 97.9228 3.19403 97.24C3.3979 95.5669 3.60178 93.8598 3.87361 92.1868C3.97555 91.4698 3.49984 90.821 2.82026 90.7186C2.1067 90.6162 1.4611 91.0942 1.35916 91.777C1.08733 93.4842 0.849476 95.2255 0.645602 96.9327C0.577644 97.6838 1.08733 98.2984 1.80089 98.4008ZM162.182 195.402C160.789 196.324 159.328 197.246 157.901 198.099C157.289 198.475 157.085 199.26 157.459 199.875C157.697 200.284 158.138 200.523 158.58 200.523C158.818 200.523 159.022 200.455 159.226 200.353C160.721 199.465 162.182 198.543 163.643 197.587C164.221 197.211 164.391 196.392 164.017 195.812C163.541 195.163 162.76 194.992 162.182 195.402ZM127.863 209.981C124.363 210.766 120.795 211.347 117.228 211.756C116.514 211.825 116.004 212.473 116.106 213.19C116.174 213.839 116.752 214.317 117.364 214.317C117.398 214.317 117.466 214.317 117.5 214.317C121.169 213.907 124.839 213.293 128.407 212.473C129.086 212.337 129.528 211.62 129.392 210.937C129.256 210.288 128.577 209.844 127.863 209.981ZM106.49 212.439C106.456 212.439 106.456 212.439 106.49 212.439C102.889 212.473 99.2528 212.303 95.685 211.961C94.9714 211.893 94.3598 212.405 94.2918 213.122C94.2239 213.839 94.7336 214.454 95.4471 214.522C98.7771 214.829 102.175 215 105.539 215C105.845 215 106.184 215 106.49 215C107.204 215 107.782 214.42 107.748 213.703C107.748 213.02 107.17 212.439 106.49 212.439ZM148.319 203.118C145.057 204.62 141.693 205.952 138.295 207.113C137.615 207.352 137.275 208.069 137.479 208.752C137.649 209.298 138.159 209.64 138.702 209.64C138.838 209.64 138.974 209.605 139.11 209.571C142.576 208.41 146.042 207.01 149.406 205.474C150.051 205.167 150.323 204.416 150.051 203.767C149.712 203.118 148.964 202.811 148.319 203.118ZM84.9816 210.391C83.3506 210.049 81.6856 209.674 80.0546 209.264C79.375 209.093 78.6615 209.503 78.4916 210.186C78.3217 210.869 78.7294 211.586 79.409 211.756C81.074 212.2 82.7729 212.576 84.4719 212.917C84.5738 212.917 84.6418 212.951 84.7437 212.951C85.3553 212.951 85.865 212.542 86.001 211.927C86.1369 211.21 85.6951 210.527 84.9816 210.391ZM100.68 5.63364C100.714 5.63364 100.714 5.63364 100.748 5.63364C102.345 5.56535 103.942 5.5312 105.539 5.5312H105.811C106.524 5.5312 107.102 4.95077 107.102 4.23376C107.102 3.51675 106.524 2.93632 105.811 2.93632H105.539C103.908 2.93632 102.243 2.97046 100.612 3.03875C99.8984 3.07289 99.3547 3.68747 99.3887 4.37033C99.4227 5.08734 100 5.63364 100.68 5.63364ZM115.053 5.94093C118.111 6.21407 121.203 6.65793 124.227 7.20422C124.295 7.20422 124.397 7.23837 124.465 7.23837C125.077 7.23837 125.621 6.79451 125.722 6.17993C125.858 5.49706 125.383 4.8142 124.703 4.67762C121.611 4.09719 118.451 3.68747 115.291 3.38018C114.577 3.3119 113.966 3.82404 113.898 4.54105C113.83 5.25806 114.339 5.87264 115.053 5.94093ZM133.232 9.28696C136.188 10.1064 139.144 11.0966 142.032 12.1891C142.168 12.2574 142.338 12.2574 142.474 12.2574C142.984 12.2574 143.493 11.9501 143.663 11.438C143.901 10.7893 143.595 10.0381 142.916 9.76497C139.96 8.63824 136.936 7.64809 133.911 6.79451C133.232 6.58965 132.518 6.99937 132.348 7.68223C132.144 8.39924 132.552 9.11625 133.232 9.28696ZM150.493 15.8766C153.245 17.2423 155.998 18.7105 158.614 20.3152C158.818 20.4518 159.056 20.4859 159.26 20.4859C159.701 20.4859 160.109 20.2811 160.347 19.8714C160.721 19.2568 160.517 18.4715 159.905 18.0959C157.221 16.457 154.401 14.9206 151.581 13.5549C150.935 13.2476 150.187 13.5207 149.882 14.1353C149.61 14.784 149.882 15.5693 150.493 15.8766ZM166.327 25.4709C168.808 27.2805 171.22 29.2608 173.531 31.3094C173.769 31.5142 174.075 31.6166 174.38 31.6166C174.72 31.6166 175.094 31.4801 175.332 31.1728C175.808 30.6265 175.74 29.8412 175.23 29.3632C172.851 27.2804 170.371 25.266 167.856 23.3881C167.279 22.9784 166.497 23.0808 166.056 23.6613C165.648 24.2417 165.75 25.0611 166.327 25.4709ZM186.273 44.7618C186.511 45.0691 186.885 45.2398 187.292 45.2398C187.564 45.2398 187.836 45.1374 188.074 44.9667C188.618 44.5228 188.72 43.7034 188.278 43.1571C186.341 40.6646 184.234 38.2746 182.06 35.9528C181.584 35.4407 180.768 35.4065 180.259 35.9187C179.749 36.3967 179.715 37.2161 180.225 37.7283C182.298 39.9817 184.37 42.3376 186.273 44.7618ZM194.36 56.6095C194.598 57.0192 195.04 57.2582 195.481 57.2582C195.685 57.2582 195.923 57.1899 196.127 57.0875C196.739 56.7119 196.943 55.9266 196.569 55.3121C195.685 53.8098 194.768 52.3416 193.816 50.8734C193.443 50.293 192.627 50.1223 192.05 50.4979C191.472 50.8734 191.302 51.6929 191.676 52.2733C192.593 53.7073 193.511 55.1755 194.36 56.6095ZM121.373 128.618V184.647V192.5H125.519C126.3 192.5 126.946 193.148 126.946 193.934V195.709C126.946 199.943 123.514 203.357 119.334 203.357H15.0867C10.8393 203.357 7.40743 199.875 7.40743 195.641V193.865C7.40743 193.114 8.01905 192.5 8.76659 192.5H13.7615V128.618C13.7615 123.155 18.1788 118.716 23.6154 118.716H29.222H111.519C116.956 118.716 121.373 123.155 121.373 128.618ZM124.363 195.06H9.98984V195.607C9.98984 198.441 12.3004 200.762 15.1207 200.762H119.334C122.121 200.762 124.397 198.475 124.397 195.675V195.06H124.363ZM118.791 192.465V128.618C118.791 124.589 115.529 121.277 111.485 121.277H23.6154C19.6059 121.277 16.3099 124.555 16.3099 128.618V192.5H118.791V192.465ZM22.2223 185.842C21.5087 185.842 20.9311 185.261 20.9311 184.544V127.423C20.9311 126.706 21.5087 126.125 22.2223 126.125H112.912C113.626 126.125 114.204 126.706 114.204 127.423V184.578C114.204 185.295 113.626 185.876 112.912 185.876H22.2223V185.842ZM23.5135 183.281H111.621V128.72H23.5135V183.281ZM55.046 168.565C54.5024 170.238 52.9393 171.467 51.1045 171.467C48.8279 171.467 46.959 169.59 46.959 167.302C46.959 165.014 48.8279 163.136 51.1045 163.136C52.9393 163.136 54.5024 164.366 55.046 166.039H60.7205C61.4341 166.039 62.0117 166.619 62.0117 167.336C62.0117 168.053 61.4341 168.633 60.7205 168.633H55.046V168.565ZM51.1045 165.697C50.221 165.697 49.5075 166.414 49.5075 167.302C49.5075 168.19 50.221 168.907 51.1045 168.907C51.9879 168.907 52.7015 168.19 52.7015 167.302C52.7015 166.414 51.9879 165.697 51.1045 165.697ZM41.3865 160.098C40.7748 161.839 39.1439 163.102 37.2071 163.102C34.7606 163.102 32.7558 161.088 32.7558 158.63C32.7558 156.171 34.7606 154.157 37.2071 154.157C39.2798 154.157 41.0127 155.591 41.5224 157.503H48.7939V154.601C48.7939 154.259 48.9298 153.918 49.1677 153.679C49.4055 153.44 49.7453 153.303 50.0851 153.303H57.4586C58.1721 153.303 58.7498 153.884 58.7498 154.601C58.7498 155.318 58.1721 155.898 57.4586 155.898H51.3083V158.8C51.3083 159.142 51.1724 159.483 50.9346 159.722C50.6967 159.961 50.3569 160.098 50.0171 160.098H41.3865ZM37.1731 156.717C36.1197 156.717 35.3042 157.571 35.3042 158.595C35.3042 159.654 36.1537 160.473 37.1731 160.473C38.2264 160.473 39.0419 159.62 39.0419 158.595C39.0759 157.571 38.2264 156.717 37.1731 156.717ZM42.134 146.099C42.134 143.811 44.0029 141.933 46.2795 141.933C48.1143 141.933 49.6774 143.163 50.221 144.836H55.8955C56.6091 144.836 57.1867 145.416 57.1867 146.133C57.1867 146.85 56.6091 147.431 55.8955 147.431H50.221C49.6774 149.104 48.1143 150.333 46.2795 150.333C44.0029 150.264 42.134 148.387 42.134 146.099ZM44.6824 146.099C44.6824 146.987 45.396 147.704 46.2795 147.704C47.1629 147.704 47.8765 146.987 47.8765 146.099C47.8765 145.211 47.1629 144.494 46.2795 144.494C45.396 144.494 44.6824 145.211 44.6824 146.099ZM63.167 159.415L62.9292 154.703C62.8612 153.303 63.9146 152.142 65.3077 152.074L67.3804 151.972C67.5164 151.459 67.7202 150.981 67.9241 150.469L66.395 149.069C65.8854 148.626 65.6135 148.011 65.5796 147.328C65.5456 146.645 65.7834 145.997 66.2252 145.519L69.3852 142.002C69.8269 141.49 70.4386 141.216 71.1181 141.182C71.7977 141.148 72.4433 141.387 72.919 141.831L74.4481 143.231C74.9238 142.992 75.3995 142.753 75.8752 142.548L75.7733 140.465C75.7393 139.782 75.9771 139.134 76.4189 138.656C76.8606 138.144 77.4722 137.87 78.1518 137.836L82.8409 137.597C84.2001 137.529 85.3893 138.587 85.4573 139.987L85.5592 142.07C86.0689 142.207 86.5446 142.411 87.0543 142.616L88.4474 141.08C89.3649 140.056 90.9619 139.987 91.9813 140.909L95.4811 144.084C96.5005 145.006 96.5684 146.611 95.651 147.635L94.2579 149.172C94.4957 149.65 94.7336 150.128 94.9374 150.606L97.0102 150.503C97.6897 150.469 98.3353 150.708 98.811 151.152C99.3207 151.596 99.5926 152.211 99.6265 152.893L99.8644 157.605C99.8984 158.288 99.6605 158.937 99.2188 159.415C98.7771 159.927 98.1654 160.2 97.4859 160.234L95.4131 160.337C95.2772 160.849 95.0734 161.327 94.8695 161.839L96.3985 163.239C96.9082 163.683 97.1801 164.297 97.214 164.98C97.248 165.663 97.0102 166.312 96.5684 166.79L93.4084 170.307C92.4909 171.331 90.8939 171.399 89.8746 170.477L88.3455 169.077C87.8698 169.316 87.4281 169.555 86.9184 169.76L87.0203 171.843C87.0543 172.526 86.8164 173.175 86.3747 173.653C85.933 174.165 85.3214 174.438 84.6418 174.472L79.9527 174.711C79.9187 174.711 79.8507 174.711 79.8168 174.711C79.2051 174.711 78.5935 174.472 78.1518 174.062C77.6421 173.618 77.3703 173.004 77.3363 172.321L77.2344 170.238C76.7247 170.102 76.249 169.897 75.7393 169.692L74.3461 171.228C73.4287 172.253 71.8317 172.321 70.8123 171.399L67.3125 168.224C66.8028 167.78 66.531 167.165 66.497 166.482C66.463 165.8 66.7009 165.151 67.1426 164.673L68.5357 163.136C68.2979 162.658 68.06 162.215 67.8561 161.702L65.7834 161.805C64.4243 161.873 63.235 160.815 63.167 159.415ZM67.9581 154.498L65.5116 154.635L65.7494 159.244L68.1959 159.108C69.0454 159.039 69.793 159.586 70.0988 160.371C70.3366 161.02 70.6424 161.634 70.9822 162.215C71.4239 162.966 71.322 163.888 70.7444 164.502L69.0794 166.346L72.4773 169.453L74.1423 167.609C74.516 167.199 75.0257 166.96 75.5694 166.96C75.8412 166.96 76.113 167.029 76.3849 167.131C76.9965 167.404 77.6421 167.643 78.3217 167.814C79.1372 168.019 79.7148 168.736 79.7828 169.589L79.9187 172.048L84.5059 171.809L84.37 169.351C84.336 168.497 84.8457 167.746 85.6272 167.438C86.2728 167.199 86.8844 166.892 87.4621 166.551C88.2096 166.107 89.127 166.209 89.7386 166.79L91.5735 168.463L94.6656 165.048L92.8307 163.375C92.2191 162.795 92.0152 161.907 92.389 161.122C92.6608 160.507 92.8987 159.859 93.0686 159.176C93.2725 158.356 93.986 157.776 94.8355 157.708L97.282 157.571L97.0441 152.962L94.5976 153.098C93.7482 153.167 93.0006 152.62 92.6948 151.835C92.457 151.186 92.1512 150.572 91.8114 149.991C91.3696 149.24 91.4716 148.318 92.0492 147.704L93.7142 145.86L90.3163 142.753L88.6513 144.597C88.0737 145.211 87.1902 145.416 86.4087 145.041C85.7971 144.767 85.1515 144.528 84.4719 144.358C83.6564 144.153 83.0788 143.436 83.0108 142.582L82.8749 140.124L78.2877 140.363L78.4236 142.821C78.4576 143.675 77.9479 144.426 77.1664 144.733C76.5208 144.972 75.9092 145.28 75.3315 145.621C74.584 146.065 73.6666 145.962 73.0549 145.382L71.2201 143.709L68.128 147.123L69.9628 148.796C70.5745 149.377 70.7783 150.264 70.4046 151.05C70.1327 151.664 69.8949 152.313 69.725 152.996C69.5211 153.884 68.8076 154.464 67.9581 154.498ZM75.1616 163.034C71.356 159.586 71.0842 153.679 74.516 149.889C77.9479 146.065 83.8263 145.792 87.598 149.24C89.4328 150.913 90.5202 153.201 90.6221 155.693C90.758 158.186 89.9085 160.576 88.2436 162.419C86.5786 164.263 84.302 165.356 81.8215 165.458C81.6516 165.458 81.5157 165.458 81.3458 165.458C79.0692 165.458 76.8946 164.605 75.1616 163.034ZM76.4189 151.63C73.9384 154.396 74.1423 158.664 76.8946 161.156C78.2198 162.351 79.9527 163 81.7196 162.897C83.5205 162.795 85.1515 162.01 86.3407 160.678C87.53 159.347 88.1416 157.605 88.0737 155.83C87.9717 154.02 87.1902 152.381 85.865 151.186C83.1467 148.66 78.8993 148.865 76.4189 151.63ZM169.046 85.5288C168.876 82.2169 170.269 79.1099 172.885 77.0272C176.215 74.364 181.006 74.125 184.574 76.4126C187.394 78.2222 189.093 81.1585 189.263 84.5045C189.433 87.8164 188.04 90.9235 185.424 93.0062C183.623 94.4402 181.38 95.1914 179.138 95.1914C177.235 95.1914 175.366 94.6792 173.735 93.6208C170.915 91.777 169.216 88.8407 169.046 85.5288ZM171.594 85.3923C171.73 87.8847 172.987 90.0699 175.094 91.4356C176.759 92.4941 178.764 92.8355 180.667 92.4599C181.788 92.2209 182.875 91.7429 183.827 90.9917C185.797 89.4212 186.851 87.0994 186.715 84.607C186.579 82.1145 185.322 79.9293 183.215 78.5636C181.074 77.1637 178.356 77.0272 176.079 78.0515C175.536 78.2905 174.992 78.6319 174.516 79.0075C172.546 80.5781 171.492 82.8998 171.594 85.3923ZM164.968 166.448C165.172 168.258 164.662 169.999 163.541 171.433C162.42 172.833 160.823 173.721 159.056 173.926C158.784 173.96 158.546 173.96 158.274 173.96C156.745 173.96 155.318 173.448 154.095 172.492C152.702 171.365 151.818 169.76 151.614 167.985C151.411 166.175 151.92 164.434 153.042 163C154.163 161.6 155.76 160.712 157.527 160.507C159.294 160.303 161.061 160.815 162.488 161.941C163.881 163.068 164.764 164.673 164.968 166.448ZM161.57 169.829C162.25 168.941 162.59 167.848 162.454 166.756C162.318 165.663 161.774 164.639 160.925 163.956C160.687 163.751 160.415 163.614 160.109 163.478C159.566 163.205 158.954 163.068 158.342 163.068C158.172 163.068 158.037 163.068 157.867 163.102C156.779 163.239 155.76 163.785 155.08 164.639C154.401 165.526 154.061 166.619 154.197 167.712C154.231 168.053 154.333 168.36 154.435 168.668C154.707 169.385 155.148 169.999 155.76 170.511C156.643 171.194 157.731 171.502 158.818 171.399C159.871 171.263 160.857 170.716 161.57 169.829ZM214 131.861C214 150.196 199.151 165.151 180.87 165.151C180.123 165.151 179.341 165.117 178.594 165.048L178.968 168.224C179.036 168.736 178.866 169.248 178.56 169.658C178.22 170.067 177.778 170.341 177.235 170.375L174.143 170.716C174.007 171.365 173.837 171.98 173.599 172.594L176.045 174.54C176.895 175.223 177.031 176.452 176.351 177.306L172.206 182.564C171.866 182.974 171.424 183.247 170.915 183.281C170.405 183.349 169.895 183.179 169.487 182.871L167.041 180.925C166.497 181.266 165.92 181.608 165.342 181.881L165.682 184.988C165.818 186.081 165.036 187.037 163.949 187.173L157.323 187.993C157.255 187.993 157.187 187.993 157.085 187.993C156.643 187.993 156.236 187.856 155.862 187.549C155.454 187.207 155.182 186.764 155.148 186.217L154.809 183.11C154.163 182.974 153.551 182.803 152.94 182.564L151.003 185.022C150.663 185.432 150.221 185.705 149.678 185.739C149.168 185.808 148.658 185.637 148.251 185.33L143.018 181.164C142.61 180.823 142.338 180.379 142.304 179.832C142.236 179.32 142.406 178.808 142.712 178.398L144.649 175.94C144.581 175.838 144.513 175.735 144.479 175.633C144.207 175.189 143.935 174.711 143.697 174.233L140.605 174.574C140.096 174.643 139.586 174.472 139.178 174.165C138.77 173.823 138.499 173.379 138.465 172.833L137.717 166.175C137.649 165.663 137.819 165.151 138.125 164.741C138.465 164.331 138.906 164.058 139.45 164.024L142.542 163.683C142.678 163.034 142.848 162.419 143.086 161.805L140.639 159.859C140.232 159.517 139.96 159.073 139.926 158.527C139.858 158.015 140.028 157.503 140.333 157.093L144.479 151.835C145.158 150.981 146.382 150.845 147.231 151.528L149.678 153.474C150.221 153.132 150.799 152.791 151.377 152.518L151.037 149.411C150.969 148.694 151.275 148.045 151.784 147.635C149.27 142.958 147.843 137.563 147.843 131.895C147.843 119.843 154.265 109.258 163.813 103.42L160.347 100.279C159.905 99.9031 159.668 99.3568 159.634 98.7764C159.6 98.196 159.803 97.6497 160.177 97.2058L162.692 94.4061C162.25 93.6549 161.876 92.8355 161.57 92.016L157.799 92.2209C157.221 92.2551 156.677 92.0502 156.236 91.6746C155.794 91.299 155.556 90.7527 155.522 90.1723L155.114 82.4559C155.046 81.2609 155.964 80.2366 157.187 80.1683L160.959 79.9635C161.197 79.1099 161.502 78.2905 161.842 77.471L159.056 74.9444C158.614 74.5688 158.376 74.0226 158.342 73.4421C158.308 72.8617 158.512 72.3154 158.886 71.8715L164.051 66.1355C164.866 65.2477 166.225 65.1795 167.109 65.9648L169.895 68.4913C170.167 68.3206 170.473 68.1841 170.779 68.0475C171.254 67.8085 171.764 67.5695 172.274 67.3646L172.07 63.5747C172.036 62.9943 172.24 62.448 172.614 62.0041C172.987 61.5603 173.531 61.3213 174.109 61.2871L181.788 60.8774C182.366 60.8433 182.909 61.0481 183.351 61.4237C183.793 61.7993 184.03 62.3456 184.064 62.926L184.268 66.7159C185.118 66.9549 185.933 67.2622 186.749 67.6036L189.263 64.8039C189.637 64.36 190.181 64.121 190.758 64.0869C191.336 64.0527 191.88 64.2576 192.321 64.6332L198.03 69.8229C198.913 70.6424 198.981 72.0081 198.2 72.8958L195.685 75.6956C196.127 76.4467 196.501 77.2662 196.807 78.0856L200.578 77.8807C201.768 77.8125 202.787 78.7343 202.855 79.9635L203.263 87.6799C203.297 88.2603 203.093 88.8066 202.719 89.2504C202.345 89.6943 201.802 89.9333 201.224 89.9675L197.452 90.1723C197.214 91.0259 196.909 91.8453 196.569 92.6648L199.355 95.1914C200.238 96.0108 200.306 97.3765 199.525 98.2643L195.923 102.259C206.627 107.756 214 118.955 214 131.861ZM211.418 131.861C211.418 114.926 197.724 101.166 180.87 101.166C164.017 101.166 150.323 114.926 150.323 131.861C150.323 148.796 164.017 162.556 180.87 162.556C197.724 162.556 211.418 148.796 211.418 131.861ZM175.977 164.775C166.769 163.41 158.784 158.22 153.687 150.845L153.891 152.62C153.993 153.508 153.517 154.327 152.702 154.703C151.988 155.01 151.309 155.386 150.663 155.83C149.916 156.342 148.964 156.308 148.285 155.727L146.008 153.918L142.61 158.22L144.887 160.029C145.566 160.576 145.838 161.498 145.498 162.351C145.226 163.068 145.023 163.819 144.853 164.57C144.683 165.458 143.969 166.107 143.12 166.209L140.232 166.551L140.843 171.98L143.731 171.638C144.615 171.536 145.43 172.014 145.804 172.833C146.11 173.55 146.484 174.233 146.925 174.848C147.435 175.599 147.401 176.555 146.823 177.238L145.023 179.525L149.304 182.939L151.105 180.652C151.479 180.174 152.09 179.901 152.668 179.901C152.906 179.901 153.144 179.935 153.381 180.037C154.095 180.31 154.842 180.515 155.59 180.686C156.473 180.857 157.119 181.574 157.221 182.427L157.561 185.33L162.963 184.715L162.624 181.813C162.522 180.925 162.997 180.106 163.813 179.73C164.527 179.423 165.206 179.047 165.852 178.603C166.599 178.091 167.551 178.159 168.23 178.706L170.507 180.515L173.905 176.213L171.628 174.404C170.949 173.857 170.677 172.936 171.017 172.082C171.288 171.365 171.492 170.614 171.662 169.863C171.832 168.975 172.546 168.326 173.395 168.224L176.283 167.882L175.977 164.775ZM162.284 98.6057L166.124 102.088C167.347 101.474 168.638 100.927 169.929 100.449C170.337 100.04 170.881 99.8007 171.458 99.8007C171.594 99.8007 171.73 99.8348 171.866 99.8348C174.72 99.0154 177.744 98.5716 180.87 98.5716C183.113 98.5716 185.288 98.8106 187.394 99.2203H187.428C188.244 98.7423 189.263 98.8447 189.943 99.4593L190.588 100.04C191.574 100.347 192.525 100.688 193.477 101.098L197.35 96.7961L194.598 94.3036C193.918 93.6549 193.715 92.6648 194.088 91.8112C194.462 90.9576 194.768 90.0699 195.006 89.1822C195.244 88.2603 196.025 87.6116 196.977 87.5774L200.646 87.3726L200.306 80.4073L196.637 80.6122C195.685 80.6463 194.836 80.1001 194.53 79.2123C194.19 78.3587 193.816 77.5052 193.341 76.6857C192.865 75.8663 192.967 74.842 193.579 74.1591L196.059 71.3935L190.928 66.7159L188.448 69.4815C187.836 70.1644 186.817 70.3692 185.967 69.9937C185.118 69.6181 184.234 69.3108 183.351 69.0718C182.433 68.8328 181.788 68.0475 181.754 67.0915L181.55 63.404L174.618 63.7454L174.822 67.4329C174.856 68.3889 174.312 69.2425 173.429 69.5498C172.546 69.8912 171.73 70.2668 170.915 70.7448C170.099 71.2228 169.08 71.1204 168.4 70.5058L165.648 68.0134L160.993 73.169L163.745 75.6614C164.425 76.276 164.628 77.3003 164.255 78.1539C163.881 79.0075 163.575 79.8952 163.337 80.7829C163.099 81.7048 162.318 82.3535 161.366 82.3877L157.697 82.5925L158.037 89.5577L161.706 89.3529C162.658 89.3187 163.507 89.865 163.813 90.7528C164.153 91.6063 164.527 92.4599 165.002 93.2794C165.478 94.0988 165.376 95.1231 164.764 95.8059L162.284 98.6057ZM198.438 146.406C198.438 146.44 198.438 146.44 198.438 146.475C198.438 149.343 189.739 154.259 180.87 154.259C172.002 154.259 163.303 149.343 163.303 146.475C163.303 145.792 163.337 131.144 171.798 127.901C170.881 126.296 170.337 124.452 170.337 122.472C170.337 116.599 174.958 111.853 180.599 111.853C186.273 111.853 190.86 116.633 190.86 122.472C190.86 124.486 190.317 126.364 189.365 127.969C197.588 131.281 198.37 145.621 198.404 146.304C198.438 146.304 198.438 146.338 198.438 146.406ZM180.87 151.664C189.127 151.664 195.176 147.499 195.855 146.338C195.855 146.304 195.855 146.304 195.855 146.27C195.753 144.767 194.7 132.1 187.734 130.12C185.899 131.964 183.385 133.125 180.633 133.125C177.846 133.125 175.332 131.964 173.463 130.086C166.259 132.032 165.886 144.938 165.852 146.338C166.497 147.431 172.58 151.664 180.87 151.664ZM172.919 122.438C172.919 126.876 176.385 130.495 180.633 130.495C184.88 130.495 188.346 126.876 188.346 122.438C188.346 117.999 184.88 114.38 180.633 114.38C176.385 114.38 172.919 117.999 172.919 122.438ZM129.426 69.6864H39.2798H22.4601C16.276 69.6864 11.2131 64.6332 11.2131 58.3849V55.8925C11.2131 49.576 16.3099 44.4545 22.5961 44.4545H63.167H129.426C135.678 44.4545 140.741 49.5419 140.741 55.8242V58.3167C140.707 64.599 135.644 69.6864 129.426 69.6864ZM22.4601 67.0915H129.426C134.251 67.0915 138.159 63.165 138.159 58.3167V55.8242C138.159 50.9759 134.251 47.0494 129.426 47.0494H22.5961C17.7371 47.0494 13.7955 51.01 13.7955 55.8925V58.3849C13.7615 63.1991 17.6691 67.0915 22.4601 67.0915ZM35.3722 63.7113C32.0762 63.7113 29.4258 61.014 29.4258 57.7362V56.5754C29.4258 53.2635 32.1102 50.6003 35.3722 50.6003H118.859C122.155 50.6003 124.805 53.2976 124.805 56.5754V57.7362C124.805 61.0481 122.121 63.7113 118.859 63.7113H35.3722ZM31.9743 57.7362C31.9743 59.6141 33.5033 61.1506 35.3722 61.1506H118.859C120.728 61.1506 122.257 59.6141 122.257 57.7362V56.5754C122.257 54.6975 120.728 53.161 118.859 53.161H35.3722C33.5033 53.161 31.9743 54.6975 31.9743 56.5754V57.7362ZM129.018 102.908H28.8482H22.8339C16.6497 102.908 11.5869 97.8545 11.5869 91.6063V88.9773C11.5869 82.7632 16.6157 77.6759 22.8339 77.6759H35.1683H129.018C135.271 77.6759 140.333 82.7632 140.333 89.0456V91.538C140.333 97.7863 135.271 102.908 129.018 102.908ZM14.1693 91.6063C14.1693 96.4205 18.0768 100.313 22.8339 100.313H129.018C133.843 100.313 137.751 96.3864 137.751 91.538V89.0456C137.751 84.1973 133.843 80.2708 129.018 80.2708H22.8339C18.0429 80.2708 14.1693 84.1972 14.1693 88.9773V91.6063ZM28.8822 90.2747C28.8822 86.6556 31.8044 83.6851 35.4062 83.6851C39.0079 83.6851 41.9301 86.6214 41.9301 90.2747C41.9301 93.8939 39.0079 96.8644 35.4062 96.8644C31.8044 96.8644 28.8822 93.9281 28.8822 90.2747ZM35.4062 86.28C33.1975 86.28 31.4306 88.0554 31.4306 90.2747C31.4306 92.494 33.2315 94.2695 35.4062 94.2695C37.6148 94.2695 39.3817 92.494 39.3817 90.2747C39.3817 88.0896 37.6148 86.28 35.4062 86.28ZM45.396 90.2747C45.396 86.6556 48.3182 83.6851 51.92 83.6851C55.5218 83.6851 58.444 86.6214 58.444 90.2747C58.444 93.8939 55.5218 96.8644 51.92 96.8644C48.3182 96.8644 45.396 93.9281 45.396 90.2747ZM47.9784 90.2747C47.9784 92.494 49.7793 94.2695 51.9539 94.2695C54.1626 94.2695 55.9295 92.494 55.9295 90.2747C55.9295 88.0554 54.1286 86.28 51.9539 86.28C49.7453 86.28 47.9784 88.0896 47.9784 90.2747ZM61.9438 90.2747C61.9438 86.6556 64.866 83.6851 68.4678 83.6851C72.0695 83.6851 74.9917 86.6214 74.9917 90.2747C74.9917 93.8939 72.0695 96.8644 68.4678 96.8644C64.866 96.8644 61.9438 93.9281 61.9438 90.2747ZM64.4922 90.2747C64.4922 92.494 66.2931 94.2695 68.4678 94.2695C70.6764 94.2695 72.4433 92.494 72.4433 90.2747C72.4433 88.0554 70.6424 86.28 68.4678 86.28C66.2931 86.28 64.4922 88.0896 64.4922 90.2747ZM78.4576 90.2747C78.4576 86.6556 81.3798 83.6851 84.9816 83.6851C88.5834 83.6851 91.5056 86.6214 91.5056 90.2747C91.5056 93.8939 88.5834 96.8644 84.9816 96.8644C81.3798 96.8644 78.4576 93.9281 78.4576 90.2747ZM84.9816 86.28C82.7729 86.28 81.006 88.0554 81.006 90.2747C81.006 92.494 82.8069 94.2695 84.9816 94.2695C87.1902 94.2695 88.9571 92.494 88.9571 90.2747C88.9911 88.0896 87.1902 86.28 84.9816 86.28ZM94.9714 90.2747C94.9714 86.6556 97.8936 83.6851 101.495 83.6851C105.097 83.6851 108.019 86.6214 108.019 90.2747C108.019 93.8939 105.097 96.8644 101.495 96.8644C97.9276 96.8644 94.9714 93.9281 94.9714 90.2747ZM97.5538 90.2747C97.5538 92.494 99.3547 94.2695 101.529 94.2695C103.738 94.2695 105.505 92.494 105.505 90.2747C105.505 88.0554 103.704 86.28 101.529 86.28C99.3207 86.28 97.5538 88.0896 97.5538 90.2747ZM111.519 90.2747C111.519 86.6556 114.441 83.6851 118.043 83.6851C121.645 83.6851 124.567 86.6214 124.567 90.2747C124.567 93.8939 121.645 96.8644 118.043 96.8644C114.441 96.8644 111.519 93.9281 111.519 90.2747ZM118.043 86.28C115.835 86.28 114.068 88.0554 114.068 90.2747C114.068 92.494 115.869 94.2695 118.043 94.2695C120.252 94.2695 122.019 92.494 122.019 90.2747C122.019 88.0896 120.252 86.28 118.043 86.28ZM75.9771 38.9233C75.0937 38.9233 74.2442 38.855 73.3947 38.7526C63.9146 37.4893 56.5751 29.329 56.5751 19.4616C56.5751 8.74067 65.2737 0 75.9432 0C86.6126 0 95.3112 8.74067 95.3112 19.4616C95.3112 24.9246 93.0686 29.8412 89.4668 33.3921C86.001 36.8064 81.2099 38.9233 75.9771 38.9233ZM59.1575 19.4275C59.1575 28.7486 66.7009 36.3284 75.9771 36.3284C85.2534 36.3284 92.7968 28.7486 92.7968 19.4275C92.7968 10.1064 85.2534 2.5266 75.9771 2.5266C66.7009 2.5266 59.1575 10.1064 59.1575 19.4275ZM64.832 24.0368L70.4046 28.5096C71.0842 29.0559 71.8657 29.2949 72.6812 29.2949C73.7685 29.2949 74.8218 28.8169 75.5354 27.9292L87.2582 13.2134C87.6999 12.6671 87.598 11.8477 87.0543 11.4038C86.5106 10.96 85.6951 11.0624 85.2534 11.6087L73.5306 26.3244C73.1569 26.8024 72.4773 26.8707 72.0016 26.4952L66.429 22.0224C65.8854 21.5785 65.0699 21.681 64.6281 22.2273C64.1864 22.8077 64.2883 23.593 64.832 24.0368Z" fill="url(#paint0_linear_1_248)"/>
<defs>
<linearGradient id="paint0_linear_1_248" x1="20.0195" y1="42.314" x2="169.777" y2="191.352" gradientUnits="userSpaceOnUse">
<stop stop-color="#1EB4FF"/>
<stop offset="1" stop-color="#5C52B3"/>
</linearGradient>
</defs>
</svg>
