<svg width="224" height="224" viewBox="0 0 224 224" fill="none" xmlns="http://www.w3.org/2000/svg">
<path d="M163.694 14.8144C164.064 14.141 164.873 13.9053 165.548 14.2757C167.132 15.1511 168.75 16.0601 170.301 17.0029C170.941 17.4069 171.143 18.2149 170.739 18.8547C170.469 19.2587 170.031 19.4944 169.593 19.4944C169.357 19.4944 169.121 19.427 168.885 19.2923C167.368 18.3496 165.784 17.4742 164.233 16.6325C163.592 16.2958 163.323 15.4877 163.694 14.8144ZM210.348 64.8129C210.584 65.2842 211.056 65.5873 211.561 65.5873C211.763 65.5873 211.966 65.5536 212.168 65.4526C212.842 65.1159 213.112 64.3078 212.808 63.6345C211.258 60.4696 209.539 57.3047 207.685 54.3081C207.28 53.6684 206.471 53.4664 205.831 53.8704C205.19 54.2745 204.988 55.0825 205.392 55.7222C207.145 58.6514 208.831 61.7153 210.348 64.8129ZM220.427 134.642C219.685 134.474 218.977 134.945 218.809 135.686C218.067 139.053 217.157 142.42 216.112 145.72C215.876 146.427 216.281 147.201 216.988 147.437C217.123 147.47 217.258 147.504 217.393 147.504C217.966 147.504 218.505 147.134 218.674 146.561C219.753 143.194 220.696 139.726 221.438 136.292C221.607 135.518 221.135 134.811 220.427 134.642ZM199.527 47.103C199.797 47.4733 200.201 47.6417 200.606 47.6417C200.875 47.6417 201.179 47.5407 201.415 47.3723C202.021 46.9346 202.123 46.0592 201.684 45.4869C199.561 42.6587 197.268 39.8978 194.875 37.2716C194.369 36.7329 193.527 36.6656 192.954 37.1706C192.414 37.6756 192.347 38.5174 192.852 39.0897C195.212 41.6486 197.437 44.3421 199.527 47.103ZM177.515 25.1508C180.279 27.2046 182.975 29.4267 185.537 31.7499C185.807 31.9856 186.11 32.0866 186.448 32.0866C186.818 32.0866 187.189 31.9519 187.459 31.6489C187.965 31.1102 187.931 30.2348 187.358 29.7297C184.728 27.3392 181.964 25.0834 179.133 22.9623C178.526 22.5246 177.683 22.6256 177.245 23.2316C176.773 23.8377 176.908 24.7131 177.515 25.1508ZM217.595 84.2399C217.764 84.8459 218.303 85.25 218.91 85.25C219.011 85.25 219.146 85.25 219.247 85.2163C219.955 85.0143 220.393 84.2736 220.225 83.5665C219.314 80.1659 218.236 76.7317 216.988 73.4321C216.719 72.7251 215.943 72.3884 215.236 72.6241C214.528 72.8934 214.191 73.6678 214.427 74.3749C215.64 77.5734 216.719 80.9067 217.595 84.2399ZM219.82 94.3743C220.393 97.7748 220.798 101.243 221.034 104.677C221.067 105.384 221.674 105.923 222.382 105.923C222.416 105.923 222.449 105.923 222.483 105.923C223.225 105.855 223.798 105.216 223.73 104.475C223.494 100.94 223.056 97.3708 222.483 93.9029C222.348 93.1622 221.674 92.6571 220.932 92.7918C220.191 92.9265 219.685 93.6335 219.82 94.3743ZM222.652 113.734C221.91 113.7 221.27 114.306 221.27 115.047C221.202 118.515 220.932 121.983 220.528 125.417C220.427 126.158 220.966 126.831 221.708 126.932C221.775 126.932 221.809 126.932 221.876 126.932C222.551 126.932 223.124 126.427 223.225 125.72C223.629 122.219 223.899 118.65 224 115.114C224 114.374 223.393 113.768 222.652 113.734ZM212.438 155.484C211.73 157.1 210.988 158.749 210.179 160.332C209.842 161.005 210.112 161.813 210.786 162.15C210.988 162.251 211.19 162.285 211.393 162.285C211.898 162.285 212.37 162.015 212.606 161.51C213.415 159.861 214.191 158.211 214.898 156.527C215.202 155.854 214.865 155.046 214.191 154.743C213.516 154.473 212.707 154.81 212.438 155.484ZM1.92145 113.768C2.66306 113.768 3.26983 113.162 3.26983 112.421C3.26983 110.636 3.30353 108.852 3.40466 107.067C3.43837 106.327 2.86531 105.687 2.1237 105.653C1.38209 105.62 0.741602 106.192 0.707893 106.933C0.606764 108.751 0.573067 110.603 0.573067 112.421C0.539357 113.162 1.14613 113.768 1.92145 113.768ZM7.21383 78.5498C7.34867 78.5835 7.51724 78.6172 7.65207 78.6172C8.22514 78.6172 8.76449 78.2468 8.93303 77.7081C9.97803 74.5769 11.1916 71.4457 12.54 68.4155C12.8433 67.7421 12.5399 66.934 11.832 66.631C11.1579 66.328 10.3488 66.631 10.0454 67.338C8.66335 70.4356 7.4161 73.6678 6.33739 76.8664C6.10143 77.5398 6.50593 78.3141 7.21383 78.5498ZM41.4628 29.191C41.7661 29.191 42.0695 29.09 42.3392 28.888C44.8674 26.7669 47.5642 24.7131 50.2947 22.8276C50.9014 22.3899 51.07 21.5482 50.6318 20.9421C50.1935 20.3361 49.3508 20.1677 48.744 20.6054C45.9461 22.5246 43.2156 24.6121 40.5863 26.8005C40.0132 27.2719 39.9458 28.1473 40.4177 28.7197C40.6874 29.0227 41.092 29.191 41.4628 29.191ZM2.79789 98.2799C2.86531 98.2799 2.93272 98.2799 3.00014 98.2799C3.67433 98.2799 4.24739 97.7748 4.34852 97.1015C4.82045 93.8019 5.42723 90.5023 6.20255 87.3038C6.37109 86.5631 5.93287 85.856 5.19126 85.6877C4.44965 85.5193 3.74175 85.957 3.57321 86.6977C2.79789 89.9973 2.15741 93.3979 1.68548 96.7648C1.55064 97.4718 2.05628 98.1452 2.79789 98.2799ZM15.1356 59.9982C15.3378 60.0992 15.5738 60.1665 15.8098 60.1665C16.2817 60.1665 16.7536 59.9309 16.9896 59.4595C18.6077 56.564 20.3606 53.7021 22.2483 50.9749C22.6865 50.3689 22.518 49.5271 21.9112 49.0894C21.3044 48.6517 20.4617 48.8201 20.0235 49.4261C18.102 52.2207 16.2817 55.1499 14.6299 58.1127C14.2591 58.7861 14.4951 59.6278 15.1356 59.9982ZM34.9905 33.7027C34.4512 33.164 33.6084 33.164 33.0691 33.7027C30.6757 36.1269 28.3497 38.652 26.1923 41.2782C25.7204 41.8506 25.7878 42.726 26.3609 43.1974C26.6306 43.3994 26.9339 43.5004 27.2373 43.5004C27.6418 43.5004 28.0126 43.332 28.2823 42.9953C30.406 40.4365 32.6646 37.945 34.9905 35.6218C35.4962 35.0831 35.4962 34.2414 34.9905 33.7027ZM58.0816 17.7099C58.3175 17.7099 58.5535 17.6426 58.7558 17.5416C60.3064 16.6662 61.8907 15.8244 63.4751 15.0164C64.1493 14.6797 64.419 13.8716 64.0819 13.1983C63.7448 12.5249 62.9358 12.2555 62.2616 12.5922C60.6435 13.4003 58.9917 14.2757 57.4074 15.1847C56.7669 15.5551 56.5309 16.3631 56.9017 17.0365C57.1714 17.4406 57.6096 17.7099 58.0816 17.7099ZM173.672 202.384C172.188 203.395 170.671 204.371 169.155 205.28C168.514 205.684 168.312 206.492 168.716 207.132C168.986 207.536 169.424 207.772 169.862 207.772C170.098 207.772 170.334 207.704 170.57 207.57C172.121 206.627 173.672 205.617 175.189 204.573C175.795 204.135 175.964 203.294 175.559 202.688C175.155 202.115 174.312 201.947 173.672 202.384ZM139.187 217.94C135.681 218.815 132.074 219.556 128.501 220.094C127.759 220.195 127.254 220.902 127.355 221.643C127.456 222.317 128.029 222.788 128.703 222.788C128.771 222.788 128.838 222.788 128.905 222.788C132.58 222.249 136.254 221.508 139.861 220.599C140.603 220.431 141.041 219.69 140.839 218.95C140.636 218.209 139.895 217.771 139.187 217.94ZM159.615 210.499C156.345 212.081 152.974 213.495 149.569 214.741C148.861 215.01 148.491 215.785 148.76 216.492C148.963 217.031 149.468 217.367 150.041 217.367C150.21 217.367 150.345 217.334 150.513 217.3C153.985 216.02 157.457 214.573 160.795 212.957C161.469 212.62 161.738 211.812 161.435 211.138C161.098 210.465 160.289 210.196 159.615 210.499ZM117.646 221.172C115.86 221.273 114.073 221.306 112.287 221.306C111.545 221.306 110.938 221.913 110.938 222.653C110.938 223.394 111.545 224 112.287 224C114.107 224 115.961 223.966 117.781 223.865C118.523 223.832 119.096 223.192 119.062 222.451C119.028 221.711 118.388 221.104 117.646 221.172ZM61.1491 49.5945C60.9469 49.5945 60.7783 49.5945 60.5761 49.5608C58.0142 49.2914 56.0253 47.103 56.0253 44.4768C56.0253 41.6486 58.3175 39.3591 61.1491 39.3591C63.5088 39.3591 65.4977 40.9415 66.0707 43.13H69.6102H74.0599V40.5712V27.0026C74.0599 23.5683 76.8915 20.7738 80.3973 20.7738H101.938V7.57553L82.4873 7.54186C81.7794 10.0334 79.4871 11.8515 76.7904 11.8515C73.5205 11.8515 70.8575 9.19164 70.8575 5.92575C70.8575 2.65985 73.5205 0 76.7904 0C79.6894 0 82.1165 2.08748 82.6221 4.84834L103.32 4.88201C104.061 4.88201 104.668 5.48805 104.668 6.22877V20.7738H123.647V6.22877C123.647 5.48805 124.253 4.88201 124.995 4.88201L145.693 4.84834C146.198 2.08748 148.625 0 151.524 0C152.266 0 152.873 0.606042 152.873 1.34676C152.873 2.08748 152.266 2.69352 151.524 2.69352C149.738 2.69352 148.288 4.14129 148.288 5.92575C148.288 7.71021 149.738 9.15797 151.524 9.15797C153.311 9.15797 154.761 7.71021 154.761 5.92575C154.761 5.18503 155.367 4.57899 156.109 4.57899C156.851 4.57899 157.457 5.18503 157.457 5.92575C157.457 9.19164 154.794 11.8515 151.524 11.8515C148.794 11.8515 146.535 10.0334 145.828 7.54186L126.377 7.57553V20.7401H146.839C148.524 20.7401 150.109 21.3798 151.322 22.5582C152.536 23.7367 153.176 25.3191 153.176 26.9689V42.0189V43.0963H154.963H162.649C163.255 40.9415 165.244 39.3254 167.57 39.3254C170.402 39.3254 172.694 41.6149 172.694 44.4431C172.694 47.2713 170.402 49.5608 167.57 49.5608C165.211 49.5608 163.222 47.9784 162.649 45.7899H159.109H153.143V64.2742V67.2707H159.345C159.952 64.7455 162.244 62.8264 164.975 62.8264C168.177 62.8264 170.773 65.4189 170.773 68.6175C170.773 71.816 168.177 74.4085 164.975 74.4085C162.244 74.4085 159.952 72.5231 159.345 69.9642H153.143V82.0851C153.143 83.7685 152.468 85.3173 151.288 86.4957C150.109 87.6741 148.491 88.3138 146.805 88.3138H126.343V99.3236L143.232 99.3573C143.94 96.8658 146.232 95.0476 148.929 95.0476C152.199 95.0476 154.862 97.7075 154.862 100.973C154.862 104.239 152.199 106.899 148.929 106.899C146.03 106.899 143.603 104.812 143.097 102.051L124.961 102.017C124.22 102.017 123.613 101.411 123.613 100.67V88.3138H104.634V100.67C104.634 101.411 104.028 102.017 103.286 102.017L84.3076 102.051C83.802 104.812 81.3749 106.899 78.4758 106.899C75.206 106.899 72.543 104.239 72.543 100.973C72.543 100.233 73.1497 99.6266 73.8914 99.6266C74.633 99.6266 75.2397 100.233 75.2397 100.973C75.2397 102.758 76.6892 104.206 78.4758 104.206C80.2625 104.206 81.712 102.758 81.712 100.973C81.712 99.1889 80.2625 97.7412 78.4758 97.7412C77.7342 97.7412 77.1275 97.1351 77.1275 96.3944C77.1275 95.6537 77.7342 95.0476 78.4758 95.0476C81.2063 95.0476 83.4649 96.8658 84.1728 99.3573L101.904 99.3236V88.3138H80.3636C76.8578 88.3138 74.0262 85.5193 74.0262 82.0851V69.9642H68.4978C67.8911 72.4894 65.5988 74.4085 62.8683 74.4085C59.6659 74.4085 57.0703 71.816 57.0703 68.6175C57.0703 65.4189 59.6659 62.8264 62.8683 62.8264C65.5988 62.8264 67.8911 64.7119 68.4978 67.2707H74.0262V45.7899H66.037C65.464 47.9784 63.5088 49.5945 61.1491 49.5945ZM148.963 97.8085C147.176 97.8085 145.726 99.2563 145.726 101.041C145.726 102.825 147.176 104.273 148.963 104.273C150.749 104.273 152.199 102.825 152.199 101.041C152.199 99.2563 150.749 97.8085 148.963 97.8085ZM76.7904 9.15797C78.577 9.15797 80.0265 7.71021 80.0265 5.92575C80.0265 4.14129 78.577 2.69352 76.7904 2.69352C75.0038 2.69352 73.5543 4.14129 73.5543 5.92575C73.5543 7.71021 75.0038 9.15797 76.7904 9.15797ZM63.5425 44.4768C63.5425 43.1637 62.4638 42.0526 61.1154 42.0526C59.767 42.0526 58.6884 43.13 58.6884 44.4768C58.6884 45.7899 59.767 46.8673 61.1154 46.8673C62.4638 46.8673 63.5425 45.7899 63.5425 44.4768ZM76.7567 82.1187C76.7567 84.0715 78.3747 85.654 80.3973 85.654H146.805C147.783 85.654 148.693 85.2836 149.367 84.6103C150.041 83.9369 150.412 83.0615 150.412 82.1187V65.6546H125.838C122.669 65.6546 120.073 63.0957 120.073 59.9645V49.1568C120.073 47.6417 120.68 46.1939 121.759 45.1165C122.838 44.0391 124.287 43.4667 125.838 43.4667H150.412V27.0026C150.412 26.0598 150.041 25.1844 149.367 24.511C148.693 23.8377 147.783 23.4673 146.805 23.4673H80.3973C78.4084 23.4673 76.7904 25.0498 76.7904 27.0026L76.7567 82.1187ZM150.446 46.1939H125.871C125.062 46.1939 124.287 46.4969 123.714 47.0693C123.141 47.6417 122.838 48.3824 122.838 49.1568V59.9645C122.838 61.6143 124.22 62.9274 125.905 62.9274H150.479L150.446 46.1939ZM65.9696 68.6848C65.9696 67.0014 64.5875 65.6209 62.902 65.6209C61.2166 65.6209 59.8344 67.0014 59.8344 68.6848C59.8344 70.3683 61.2166 71.7487 62.902 71.7487C64.5875 71.7487 65.9696 70.3683 65.9696 68.6848ZM161.907 68.6848C161.907 70.3683 163.289 71.7487 164.975 71.7487C166.66 71.7487 168.042 70.3683 168.042 68.6848C168.042 67.0014 166.66 65.6209 164.975 65.6209C163.289 65.6209 161.907 66.9677 161.907 68.6848ZM165.143 44.4768C165.143 45.7899 166.222 46.8673 167.57 46.8673C168.919 46.8673 169.997 45.7899 169.997 44.4768C169.997 43.1637 168.919 42.0526 167.57 42.0526C166.222 42.0526 165.143 43.13 165.143 44.4768ZM136.928 54.5775C136.928 57.0017 134.939 58.9545 132.479 58.9545C130.018 58.9545 128.029 56.968 128.029 54.5775C128.029 52.1533 130.018 50.2005 132.479 50.2005C134.939 50.1668 136.928 52.1533 136.928 54.5775ZM132.479 56.2273C133.422 56.2273 134.231 55.4865 134.231 54.5438C134.231 53.6011 133.456 52.8604 132.479 52.8604C131.535 52.8604 130.726 53.6011 130.726 54.5438C130.759 55.4865 131.535 56.2273 132.479 56.2273ZM27.1025 129.457C27.1025 136.932 21.0348 142.992 13.5512 142.992C6.06772 142.992 0 136.932 0 129.457C0 121.983 6.06772 115.922 13.5512 115.922C21.0348 115.922 27.1025 121.983 27.1025 129.457ZM24.372 129.457C24.372 123.498 19.5178 118.616 13.5175 118.616C7.51722 118.616 2.66304 123.464 2.66304 129.457C2.66304 135.417 7.51722 140.299 13.5175 140.299C19.5178 140.299 24.372 135.417 24.372 129.457ZM27.1025 165.551C27.1025 173.025 21.0348 179.086 13.5512 179.086C6.06772 179.086 0 173.025 0 165.551C0 158.076 6.06772 152.016 13.5512 152.016C21.0348 152.016 27.1025 158.076 27.1025 165.551ZM24.372 165.551C24.372 159.591 19.5178 154.709 13.5175 154.709C7.51722 154.709 2.66304 159.557 2.66304 165.551C2.66304 171.51 7.51722 176.392 13.5175 176.392C19.5178 176.392 24.372 171.51 24.372 165.551ZM27.1025 201.644C27.1025 209.118 21.0348 215.179 13.5512 215.179C6.06772 215.179 0 209.118 0 201.644C0 194.169 6.06772 188.109 13.5512 188.109C21.0348 188.109 27.1025 194.169 27.1025 201.644ZM24.372 201.644C24.372 195.684 19.5178 190.802 13.5175 190.802C7.51722 190.802 2.66304 195.651 2.66304 201.644C2.66304 207.603 7.51722 212.485 13.5175 212.485C19.5178 212.485 24.372 207.603 24.372 201.644ZM110.095 120.804V137.706C110.095 138.447 109.489 139.053 108.747 139.053H37.6199C36.8782 139.053 36.2715 138.447 36.2715 137.706V120.771C36.2715 120.03 36.8782 119.424 37.6199 119.424H108.747C109.489 119.424 110.095 120.03 110.095 120.804ZM107.365 122.151H38.9682V136.36H107.365V122.151ZM109.725 193.698C109.961 193.934 110.095 194.27 110.095 194.607V211.98C110.095 212.721 109.489 213.327 108.747 213.327H74.397L70.9586 215.145C70.7563 215.246 70.5541 215.313 70.3182 215.313C70.1833 215.313 70.0485 215.28 69.9136 215.246C69.5765 215.145 69.2731 214.909 69.1046 214.573L68.4641 213.361H37.6199C36.8782 213.361 36.2715 212.755 36.2715 212.014V194.641C36.2715 193.9 36.8782 193.294 37.6199 193.294H54.9803L54.6095 186.324H37.6536C36.912 186.324 36.3052 185.718 36.3052 184.978V145.686C36.3052 145.012 36.7771 144.474 37.4176 144.339C37.485 144.339 37.5862 144.305 37.6536 144.305H115.287C116.028 144.305 116.635 144.911 116.635 145.652V184.91C116.635 185.651 116.028 186.257 115.287 186.257H78.2399H64.6549L73.6217 193.227H103.556H108.814C109.118 193.294 109.489 193.462 109.725 193.698ZM38.9682 210.667H67.0483L64.3852 205.583C64.3515 205.549 64.2841 205.516 64.2167 205.549L58.5535 208.512C57.9467 208.815 57.2725 208.815 56.6658 208.479C56.0927 208.142 55.7219 207.57 55.6882 206.896L55.0814 196.055H38.9345V210.667H38.9682ZM70.8575 212.148L72.4755 211.307L68.3967 203.462C68.0596 202.789 67.9922 202.014 68.1944 201.307C68.4304 200.6 68.9023 199.994 69.5765 199.657L74.1948 197.267L57.1377 183.968L58.3175 205.549L62.9358 203.159C63.3403 202.957 63.7785 202.822 64.2504 202.822C64.5201 202.822 64.8235 202.856 65.0932 202.957C65.8011 203.193 66.4078 203.664 66.7449 204.337L70.8575 212.148ZM38.9682 183.597H54.4409L54.3061 181.375C54.2724 180.803 54.5758 180.264 55.0814 179.995C55.5871 179.725 56.2275 179.793 56.6658 180.129L61.0817 183.597H113.837V147.033H38.9682V183.597ZM107.365 195.987H76.9589C77.3634 196.391 77.5994 196.964 77.532 197.536C77.4645 198.21 77.0937 198.782 76.487 199.085L70.8238 202.048C70.7901 202.081 70.7563 202.149 70.7901 202.216L75.206 210.667H107.365V195.987V195.987ZM20.428 165.551C20.428 169.355 17.3267 172.453 13.5175 172.453C9.70834 172.453 6.60707 169.355 6.60707 165.551C6.60707 161.746 9.70834 158.648 13.5175 158.648C17.3267 158.648 20.428 161.712 20.428 165.551ZM17.7312 165.551C17.7312 163.227 15.8435 161.342 13.5175 161.342C11.1916 161.342 9.30383 163.227 9.30383 165.551C9.30383 167.874 11.1916 169.759 13.5175 169.759C15.8435 169.759 17.7312 167.84 17.7312 165.551ZM46.2495 157.403H58.5872C59.3288 157.403 59.9356 156.797 59.9356 156.056C59.9356 155.315 59.3288 154.709 58.5872 154.709H46.2495C45.5079 154.709 44.9011 155.315 44.9011 156.056C44.9011 156.797 45.5079 157.403 46.2495 157.403ZM66.1382 157.403H78.4758C79.2175 157.403 79.8242 156.797 79.8242 156.056C79.8242 155.315 79.2175 154.709 78.4758 154.709H66.1382C65.3965 154.709 64.7898 155.315 64.7898 156.056C64.7898 156.797 65.3965 157.403 66.1382 157.403ZM85.9931 157.403H106.185C106.927 157.403 107.533 156.797 107.533 156.056C107.533 155.315 106.927 154.709 106.185 154.709H85.9931C85.2515 154.709 84.6447 155.315 84.6447 156.056C84.6447 156.797 85.2515 157.403 85.9931 157.403ZM44.9011 165.079C44.9011 165.82 45.5079 166.426 46.2495 166.426H85.6897C86.4313 166.426 87.0381 165.82 87.0381 165.079C87.0381 164.338 86.4313 163.732 85.6897 163.732H46.2495C45.5079 163.732 44.9011 164.338 44.9011 165.079ZM76.6555 175.449C77.3971 175.449 78.0039 174.843 78.0039 174.103C78.0039 173.362 77.3971 172.756 76.6555 172.756H46.2495C45.5079 172.756 44.9011 173.362 44.9011 174.103C44.9011 174.843 45.5079 175.449 46.2495 175.449H76.6555ZM192.616 107.303C192.886 107.573 193.223 107.707 193.56 107.707C193.897 107.707 194.268 107.573 194.504 107.303C195.043 106.764 195.043 105.923 194.504 105.384L192.448 103.33C191.909 102.792 191.066 102.792 190.526 103.33C189.987 103.869 189.987 104.711 190.526 105.249L192.616 107.303ZM201.212 112.051C200.673 111.512 199.83 111.512 199.291 112.051C198.752 112.589 198.752 113.431 199.291 113.97L201.347 116.023C201.617 116.293 201.954 116.427 202.291 116.427C202.628 116.427 202.999 116.293 203.235 116.023C203.774 115.485 203.774 114.643 203.235 114.104L201.212 112.051ZM211.224 178.715C214.494 181.981 216.281 186.291 216.247 190.87C216.247 195.314 214.494 199.489 211.359 202.587C208.258 205.684 204.078 207.401 199.628 207.401C195.044 207.401 190.729 205.583 187.459 202.317L161.974 176.796L157.896 172.688L151.828 178.749C150.715 179.86 149.266 180.399 147.816 180.399C146.367 180.399 144.917 179.86 143.805 178.749L127.692 162.655C126.613 161.578 126.04 160.164 126.04 158.648C126.04 157.133 126.647 155.719 127.692 154.642L145.625 136.73C145.625 136.73 145.625 136.73 145.659 136.696L171.514 110.872L177.279 105.115C177.818 104.576 178.661 104.576 179.2 105.115L180.65 106.562L191.909 95.317L193.965 93.2632C194.504 92.7245 195.347 92.7245 195.886 93.2632L204.583 101.95L213.28 110.636C213.55 110.906 213.685 111.242 213.685 111.579C213.685 111.949 213.55 112.286 213.28 112.522L199.965 125.821L201.415 127.269C201.684 127.538 201.819 127.875 201.819 128.212C201.819 128.582 201.684 128.919 201.415 129.154L195.65 134.912L187.796 142.757L181.593 148.952L183.818 151.174L211.224 178.715ZM209.471 200.667C212.101 198.075 213.55 194.573 213.55 190.87C213.55 187.031 212.067 183.395 209.303 180.634L167.638 138.918C164.806 136.057 161.064 134.642 157.39 134.642C153.817 134.642 150.277 135.989 147.58 138.649C144.951 141.275 143.502 144.743 143.502 148.48C143.502 152.319 145.019 155.955 147.749 158.682L189.38 200.364C192.144 203.125 195.785 204.64 199.628 204.64C203.37 204.708 206.876 203.26 209.471 200.667ZM149.906 176.897L156.008 170.803L145.861 160.635C142.591 157.369 140.805 153.059 140.805 148.514C140.805 147.336 140.94 146.191 141.142 145.08L129.613 156.595C129.04 157.167 128.737 157.908 128.737 158.682C128.737 159.456 129.04 160.197 129.613 160.77L145.726 176.863C146.873 178.042 148.76 178.042 149.906 176.897ZM182.571 108.549L189.347 115.316L201.718 102.96L194.942 96.1924L182.571 108.549ZM198.044 124.003L210.415 111.646L203.639 104.879L191.268 117.236L198.044 124.003ZM178.222 108.044L174.38 111.882L194.673 132.151L198.516 128.313L197.066 126.865C197.066 126.865 197.032 126.865 197.032 126.831L188.335 118.145L179.638 109.458C179.638 109.458 179.638 109.424 179.605 109.424L178.222 108.044ZM153.952 132.286C159.379 131.175 165.312 132.723 169.559 136.999L179.672 147.134L192.751 134.07L172.458 113.801L153.952 132.286ZM164.975 156.123C163.019 158.076 160.457 159.019 157.896 159.019C155.233 159.019 152.569 158.009 150.547 155.955C148.592 154.002 147.513 151.443 147.513 148.716C147.479 146.023 148.491 143.497 150.378 141.612C150.412 141.578 150.446 141.545 150.446 141.511C154.39 137.572 160.862 137.639 164.873 141.646C166.829 143.598 167.907 146.225 167.907 148.985C167.907 151.645 166.896 154.137 165.042 155.989C165.042 156.056 165.008 156.09 164.975 156.123ZM163.053 154.204C164.435 152.824 165.177 151.006 165.211 149.019C165.211 146.999 164.402 145.08 162.952 143.598C160.019 140.669 155.3 140.568 152.401 143.396C152.367 143.43 152.367 143.464 152.333 143.464C150.951 144.844 150.176 146.73 150.176 148.716C150.176 150.736 150.985 152.622 152.435 154.036C155.367 156.965 160.053 157.066 162.952 154.238C163.019 154.238 163.053 154.204 163.053 154.204Z" fill="url(#paint0_linear_1_1714)"/>
<defs>
<linearGradient id="paint0_linear_1_1714" x1="20.921" y1="45.8355" x2="194.411" y2="219.534" gradientUnits="userSpaceOnUse">
<stop stop-color="#1EB4FF"/>
<stop offset="1" stop-color="#5C52B3"/>
</linearGradient>
</defs>
</svg>
