<svg width="40" height="40" viewBox="0 0 40 40" fill="none" xmlns="http://www.w3.org/2000/svg">
<g id="icon">
<rect id="background" width="40" height="40" rx="20" fill="#999999"/>
<g id="bell">
<path id="shape01" d="M22.8806 10.3419C22.3989 10.2129 22.1128 9.71715 22.2418 9.23546L22.4756 8.36281C22.6047 7.88112 23.1004 7.59493 23.5821 7.724C24.0638 7.85307 24.35 8.34876 24.2209 8.83046L23.9871 9.7031C23.858 10.1848 23.3623 10.471 22.8806 10.3419Z" fill="white"/>
<path id="shape02" d="M28.4553 19.9985C27.9736 19.8694 27.6874 19.3737 27.8165 18.892C28.7668 15.3456 26.6968 11.5521 23.2022 10.4361C19.7023 9.32294 15.8116 11.2056 14.5331 14.642C14.4565 14.8474 14.3885 15.0611 14.3303 15.2784C14.2012 15.7601 13.7055 16.0463 13.2238 15.9172C12.7421 15.7882 12.4559 15.2925 12.585 14.8108C12.6579 14.5385 12.7435 14.2696 12.8397 14.012C14.4496 9.68459 19.3492 7.31052 23.7518 8.71511C28.1519 10.12 30.758 14.8953 29.5618 19.3597C29.4326 19.8418 28.937 20.1276 28.4553 19.9985Z" fill="white"/>
<path id="shape03" d="M28.497 26.3888C28.2819 26.3312 28.0872 26.1939 27.961 25.9894C27.0558 24.516 26.7931 22.7125 27.2408 21.0418C27.3699 20.5601 27.8656 20.2739 28.3473 20.403C28.8289 20.5321 29.1151 21.0278 28.9861 21.5095C28.6663 22.7028 28.8537 23.9914 29.5006 25.0434C29.7618 25.4683 29.629 26.0248 29.204 26.2864C28.9841 26.4211 28.7283 26.4508 28.497 26.3888Z" fill="white"/>
<path id="shape04" d="M9.99371 21.4311C9.76202 21.369 9.55564 21.216 9.43281 20.9886C9.1954 20.5499 9.35868 20.0016 9.79735 19.7642C10.8836 19.1765 11.69 18.1548 12.0099 16.961C12.1389 16.4793 12.6346 16.1931 13.1163 16.3222C13.598 16.4512 13.8842 16.9469 13.7551 17.4286C13.3073 19.1002 12.1781 20.5307 10.6576 21.3532C10.4456 21.4671 10.2088 21.4888 9.99371 21.4311Z" fill="white"/>
<path id="shape05" d="M17.5027 30.4131C15.1379 29.7795 13.675 27.2457 14.3087 24.8808C14.4377 24.3991 14.9334 24.1129 15.4151 24.242C15.8968 24.3711 16.183 24.8668 16.0539 25.3485C15.6737 26.7674 16.5515 28.2877 17.9704 28.6679C19.3893 29.0481 20.9096 28.1703 21.2898 26.7514C21.4189 26.2697 21.9146 25.9835 22.3963 26.1126C22.878 26.2417 23.1641 26.7374 23.0351 27.2191C22.4014 29.5839 19.8676 31.0468 17.5027 30.4131Z" fill="white"/>
<path id="shape06" d="M10.3855 24.7644C9.32223 24.4795 8.55049 23.5759 8.41911 22.4623C8.28764 21.3473 8.82823 20.288 9.79646 19.7636C10.2352 19.5258 10.7831 19.6889 11.0214 20.1278C11.2588 20.5665 11.0959 21.1149 10.6571 21.3528C10.1779 21.6125 10.1962 22.1061 10.2135 22.251C10.2306 22.3949 10.327 22.8781 10.8532 23.0191C11.3349 23.1482 11.6211 23.6439 11.492 24.1256C11.3629 24.6073 10.8677 24.8936 10.3855 24.7644Z" fill="white"/>
<path id="shape07" d="M26.4908 29.0797C26.0091 28.9506 25.7229 28.4549 25.852 27.9733C25.981 27.4916 26.4767 27.2054 26.9584 27.3344C27.4851 27.4755 27.811 27.1037 27.8986 26.9864C27.9855 26.8698 28.2472 26.4531 27.9619 25.989C27.7009 25.5637 27.8335 25.0076 28.2585 24.746C28.6839 24.4849 29.2399 24.6175 29.5016 25.0426C30.0779 25.9808 30.0171 27.1677 29.347 28.0661C28.6754 28.9669 27.5541 29.3646 26.4908 29.0797Z" fill="white"/>
<path id="shape08" d="M12.6484 18.0668C12.1667 17.9378 11.8805 17.4421 12.0096 16.9604L12.5855 14.8111C12.7146 14.3294 13.2103 14.0432 13.692 14.1722C14.1737 14.3013 14.4599 14.797 14.3308 15.2787L13.7549 17.428C13.6258 17.9097 13.1306 18.196 12.6484 18.0668Z" fill="white"/>
<path id="shape09" d="M27.8799 22.1478C27.3982 22.0187 27.112 21.523 27.2411 21.0413L27.817 18.892C27.946 18.4103 28.4417 18.1241 28.9234 18.2532C29.4051 18.3822 29.6913 18.8779 29.5622 19.3596L28.9863 21.509C28.8573 21.9907 28.3616 22.2768 27.8799 22.1478Z" fill="white"/>
<path id="shape10" d="M26.4905 29.0797L10.386 24.7644C9.90425 24.6354 9.61806 24.1397 9.74713 23.658C9.8762 23.1763 10.3719 22.8901 10.8536 23.0192L26.9578 27.3343C27.4395 27.4633 27.7256 27.959 27.5966 28.4407C27.4675 28.9224 26.9722 29.2087 26.4905 29.0797Z" fill="white"/>
</g>
</g>
</svg>
