<svg width="48" height="48" viewBox="0 0 48 48" fill="none" xmlns="http://www.w3.org/2000/svg">
<g id="icon" filter="url(#filter0_d_611_1334)">
<rect id="background" x="4" width="40" height="40" rx="20" fill="url(#paint0_linear_611_1334)"/>
<g id="bell">
<path id="shape01" d="M26.8806 10.342C26.3989 10.2129 26.1128 9.71722 26.2418 9.23552L26.4756 8.36288C26.6047 7.88118 27.1004 7.59499 27.5821 7.72406C28.0638 7.85313 28.35 8.34882 28.2209 8.83052L27.9871 9.70316C27.858 10.1849 27.3623 10.4711 26.8806 10.342Z" fill="white"/>
<path id="shape02" d="M32.4553 19.9985C31.9736 19.8694 31.6874 19.3737 31.8165 18.892C32.7668 15.3456 30.6968 11.5521 27.2022 10.4361C23.7023 9.32294 19.8116 11.2056 18.5331 14.642C18.4565 14.8474 18.3885 15.0611 18.3303 15.2784C18.2012 15.7601 17.7055 16.0463 17.2238 15.9172C16.7421 15.7882 16.4559 15.2925 16.585 14.8108C16.6579 14.5385 16.7435 14.2696 16.8397 14.012C18.4496 9.68459 23.3492 7.31052 27.7518 8.71511C32.1519 10.12 34.758 14.8953 33.5618 19.3597C33.4326 19.8418 32.937 20.1276 32.4553 19.9985Z" fill="white"/>
<path id="shape03" d="M32.497 26.3888C32.2819 26.3312 32.0872 26.1939 31.961 25.9894C31.0558 24.516 30.7931 22.7125 31.2408 21.0418C31.3699 20.5601 31.8656 20.2739 32.3473 20.403C32.8289 20.5321 33.1151 21.0278 32.9861 21.5095C32.6663 22.7028 32.8537 23.9914 33.5006 25.0434C33.7618 25.4683 33.629 26.0248 33.204 26.2864C32.9841 26.4211 32.7283 26.4508 32.497 26.3888Z" fill="white"/>
<path id="shape04" d="M13.9937 21.4311C13.762 21.369 13.5556 21.216 13.4328 20.9886C13.1954 20.5499 13.3587 20.0016 13.7973 19.7642C14.8836 19.1765 15.69 18.1548 16.0099 16.961C16.1389 16.4793 16.6346 16.1931 17.1163 16.3222C17.598 16.4512 17.8842 16.9469 17.7551 17.4286C17.3073 19.1002 16.1781 20.5307 14.6576 21.3532C14.4456 21.4671 14.2088 21.4888 13.9937 21.4311Z" fill="white"/>
<path id="shape05" d="M21.5027 30.4131C19.1379 29.7795 17.675 27.2457 18.3087 24.8808C18.4377 24.3991 18.9334 24.1129 19.4151 24.242C19.8968 24.3711 20.183 24.8668 20.0539 25.3485C19.6737 26.7674 20.5515 28.2877 21.9704 28.6679C23.3893 29.0481 24.9096 28.1703 25.2898 26.7514C25.4189 26.2697 25.9146 25.9835 26.3963 26.1126C26.878 26.2417 27.1641 26.7374 27.0351 27.2191C26.4014 29.5839 23.8676 31.0468 21.5027 30.4131Z" fill="white"/>
<path id="shape06" d="M14.3855 24.7644C13.3222 24.4794 12.5505 23.5759 12.4191 22.4623C12.2876 21.3472 12.8282 20.2879 13.7965 19.7636C14.2352 19.5257 14.7831 19.6889 15.0214 20.1278C15.2588 20.5664 15.0959 21.1149 14.6571 21.3527C14.1779 21.6124 14.1962 22.106 14.2135 22.2509C14.2306 22.3949 14.327 22.8781 14.8532 23.0191C15.3349 23.1481 15.6211 23.6438 15.492 24.1255C15.3629 24.6072 14.8677 24.8935 14.3855 24.7644Z" fill="white"/>
<path id="shape07" d="M30.4908 29.0797C30.0091 28.9506 29.7229 28.4549 29.852 27.9733C29.981 27.4916 30.4767 27.2054 30.9584 27.3344C31.4851 27.4755 31.811 27.1037 31.8986 26.9864C31.9855 26.8698 32.2472 26.4531 31.9619 25.989C31.7009 25.5637 31.8335 25.0076 32.2585 24.746C32.6839 24.4849 33.2399 24.6175 33.5016 25.0426C34.0779 25.9808 34.0171 27.1677 33.347 28.0661C32.6754 28.9669 31.5541 29.3646 30.4908 29.0797Z" fill="white"/>
<path id="shape08" d="M16.6484 18.0668C16.1667 17.9377 15.8805 17.442 16.0096 16.9603L16.5855 14.811C16.7146 14.3293 17.2103 14.0431 17.692 14.1722C18.1737 14.3013 18.4599 14.7969 18.3308 15.2786L17.7549 17.428C17.6258 17.9097 17.1306 18.196 16.6484 18.0668Z" fill="white"/>
<path id="shape09" d="M31.8799 22.1477C31.3982 22.0186 31.112 21.5229 31.2411 21.0412L31.817 18.8919C31.946 18.4102 32.4417 18.124 32.9234 18.2531C33.4051 18.3822 33.6913 18.8779 33.5622 19.3596L32.9863 21.5089C32.8573 21.9906 32.3616 22.2768 31.8799 22.1477Z" fill="white"/>
<path id="shape10" d="M30.4905 29.0796L14.386 24.7644C13.9043 24.6353 13.6181 24.1396 13.7471 23.6579C13.8762 23.1762 14.3719 22.89 14.8536 23.0191L30.9578 27.3342C31.4395 27.4633 31.7256 27.959 31.5966 28.4407C31.4675 28.9224 30.9722 29.2087 30.4905 29.0796Z" fill="white"/>
</g>
</g>
<defs>
<filter id="filter0_d_611_1334" x="0" y="0" width="48" height="48" filterUnits="userSpaceOnUse" color-interpolation-filters="sRGB">
<feFlood flood-opacity="0" result="BackgroundImageFix"/>
<feColorMatrix in="SourceAlpha" type="matrix" values="0 0 0 0 0 0 0 0 0 0 0 0 0 0 0 0 0 0 127 0" result="hardAlpha"/>
<feOffset dy="4"/>
<feGaussianBlur stdDeviation="2"/>
<feComposite in2="hardAlpha" operator="out"/>
<feColorMatrix type="matrix" values="0 0 0 0 0 0 0 0 0 0 0 0 0 0 0 0 0 0 0.25 0"/>
<feBlend mode="normal" in2="BackgroundImageFix" result="effect1_dropShadow_611_1334"/>
<feBlend mode="normal" in="SourceGraphic" in2="effect1_dropShadow_611_1334" result="shape"/>
</filter>
<linearGradient id="paint0_linear_611_1334" x1="-1.06667" y1="18.9655" x2="48.018" y2="21.1085" gradientUnits="userSpaceOnUse">
<stop stop-color="#3892DB"/>
<stop offset="0.598958" stop-color="#974ED6"/>
<stop offset="1" stop-color="#D721D2"/>
</linearGradient>
</defs>
</svg>
