<svg width="245" height="232" viewBox="0 0 245 232" fill="none" xmlns="http://www.w3.org/2000/svg">
<path d="M7.16853 110.209C7.2432 108.304 7.39254 106.399 7.57922 104.531C7.65389 103.746 8.32598 103.186 9.11004 103.261C9.8941 103.335 10.4541 104.008 10.3794 104.792C10.1927 106.623 10.0807 108.491 9.96874 110.359C9.9314 111.106 9.29672 111.704 8.54999 111.704C8.51266 111.704 8.51263 111.704 8.47529 111.704C7.72857 111.666 7.13119 110.994 7.16853 110.209ZM23.8952 58.3549C24.1192 58.5043 24.3805 58.5417 24.6045 58.5417C25.0899 58.5417 25.5379 58.2802 25.7993 57.8692C27.4794 55.0299 29.3462 52.228 31.2877 49.5382C31.7357 48.9031 31.5864 48.0438 30.989 47.5581C30.3543 47.1098 29.4956 47.2593 29.0102 47.857C27.0314 50.6216 25.1272 53.4609 23.4098 56.3749C23.0364 57.0847 23.2231 57.9813 23.8952 58.3549ZM10.1554 96.0502C10.2301 96.0502 10.3421 96.0876 10.4168 96.0876C11.0889 96.0876 11.6862 95.6019 11.7982 94.9295C12.3956 91.6792 13.1797 88.429 14.0757 85.2161C14.2997 84.4689 13.8517 83.6844 13.105 83.4602C12.3583 83.2361 11.5742 83.6844 11.3502 84.4316C10.4168 87.6818 9.67005 91.0441 9.03534 94.3691C8.88599 95.191 9.37136 95.9382 10.1554 96.0502ZM15.3452 76.5861C15.4945 76.6609 15.6812 76.6609 15.8305 76.6609C16.3906 76.6609 16.9506 76.3246 17.1373 75.7643C18.2947 72.6634 19.6388 69.6 21.0576 66.6113C21.3936 65.9014 21.0949 65.0795 20.3855 64.7433C19.6762 64.4071 18.8548 64.706 18.5187 65.3784C17.0253 68.4419 15.6812 71.58 14.4864 74.7556C14.2624 75.5027 14.6358 76.3246 15.3452 76.5861ZM36.4401 42.2531C36.8508 42.2531 37.2242 42.1037 37.5229 41.7675C38.7176 40.3852 39.987 39.0029 41.2565 37.658C41.7792 37.0976 41.7792 36.201 41.2191 35.6779C40.6591 35.1549 39.763 35.1549 39.2403 35.7153C37.9335 37.0976 36.6268 38.5172 35.3947 39.9369C34.872 40.5346 34.9466 41.4312 35.544 41.9169C35.8054 42.1411 36.1041 42.2531 36.4401 42.2531ZM171.149 218.401C169.469 219.186 167.751 219.933 166.071 220.643C165.362 220.942 165.026 221.764 165.287 222.473C165.511 223.034 166.034 223.333 166.594 223.333C166.781 223.333 166.967 223.295 167.117 223.221C168.872 222.511 170.626 221.726 172.344 220.904C173.053 220.568 173.352 219.746 173.016 219.036C172.717 218.364 171.858 218.065 171.149 218.401ZM153.9 224.864C149.793 226.023 145.574 226.957 141.355 227.666C140.571 227.778 140.048 228.526 140.197 229.273C140.309 229.983 140.907 230.468 141.579 230.468C141.653 230.468 141.728 230.468 141.803 230.468C146.134 229.758 150.465 228.787 154.684 227.592C155.43 227.367 155.879 226.583 155.655 225.836C155.431 225.089 154.646 224.64 153.9 224.864ZM128.548 229.011C126.719 229.086 124.815 229.161 122.985 229.161C122.201 229.161 121.567 229.796 121.567 230.58C121.567 231.365 122.201 232 122.985 232C124.89 232 126.794 231.963 128.698 231.851C129.482 231.813 130.079 231.141 130.042 230.356C130.005 229.572 129.332 228.937 128.548 229.011ZM210.875 44.6068C211.136 44.943 211.547 45.1298 211.957 45.1298C212.256 45.1298 212.592 45.0177 212.854 44.8309C213.451 44.3452 213.563 43.4486 213.078 42.8509C211.883 41.3939 210.651 39.9369 209.381 38.5172C208.859 37.9568 207.962 37.8821 207.402 38.4052C206.805 38.9282 206.768 39.8248 207.29 40.3852C208.485 41.7675 209.717 43.1871 210.875 44.6068ZM222.262 61.5678C222.524 62.0535 223.009 62.315 223.494 62.315C223.718 62.315 223.942 62.2776 224.166 62.1282C224.838 61.7546 225.1 60.8953 224.726 60.2229C223.046 57.1594 221.217 54.1707 219.275 51.294C218.827 50.6589 217.969 50.4721 217.334 50.9205C216.699 51.3688 216.512 52.228 216.96 52.8631C218.827 55.6651 220.619 58.5791 222.262 61.5678ZM230.402 80.2847C230.588 80.8824 231.148 81.256 231.746 81.256C231.895 81.256 232.044 81.2187 232.194 81.1813C232.94 80.9198 233.351 80.1353 233.09 79.3881C232.007 76.1005 230.738 72.8129 229.356 69.6C229.057 68.8902 228.199 68.5539 227.489 68.8528C226.78 69.1517 226.444 70.011 226.743 70.7208C228.124 73.8589 229.356 77.0718 230.402 80.2847ZM233.164 90.1101C233.948 93.3977 234.546 96.7974 235.031 100.16C235.143 100.87 235.741 101.393 236.413 101.393C236.487 101.393 236.525 101.393 236.599 101.393C237.383 101.281 237.906 100.571 237.794 99.7861C237.309 96.3491 236.674 92.8747 235.89 89.475C235.703 88.7279 234.957 88.2422 234.21 88.429C233.463 88.6158 233.015 89.363 233.164 90.1101ZM236.002 110.359C236.077 112.189 236.151 114.095 236.151 115.925C236.151 116.71 236.786 117.345 237.57 117.345C238.354 117.345 238.989 116.71 238.989 115.925C238.989 114.02 238.952 112.115 238.84 110.209C238.802 109.425 238.13 108.827 237.346 108.864C236.562 108.902 235.965 109.574 236.002 110.359ZM44.1687 120.894V146.448V155.003C44.1687 155.787 43.534 156.423 42.7499 156.423H1.41875C0.634688 156.423 0 155.787 0 155.003V120.894C0 120.109 0.634688 119.474 1.41875 119.474H38.5682H42.7499C43.534 119.512 44.1687 120.147 44.1687 120.894ZM41.3311 153.621V122.314H2.83754V153.621H41.3311ZM9.89409 137.257C9.11003 137.257 8.47529 137.892 8.47529 138.677V147.942C8.47529 148.727 9.11003 149.362 9.89409 149.362C10.6781 149.362 11.3128 148.727 11.3128 147.942V138.677C11.3128 137.892 10.6781 137.257 9.89409 137.257ZM17.9214 134.381C17.1373 134.381 16.5026 135.016 16.5026 135.8V147.942C16.5026 148.727 17.1373 149.362 17.9214 149.362C18.7054 149.362 19.3401 148.727 19.3401 147.942V135.8C19.3028 135.016 18.7054 134.381 17.9214 134.381ZM25.9113 132.475C25.1273 132.475 24.4925 133.11 24.4925 133.895V147.942C24.4925 148.727 25.1273 149.362 25.9113 149.362C26.6954 149.362 27.3301 148.727 27.3301 147.942V133.895C27.3301 133.11 26.6954 132.475 25.9113 132.475ZM33.9012 124.817C33.1172 124.817 32.4825 125.452 32.4825 126.236V147.942C32.4825 148.727 33.1172 149.362 33.9012 149.362C34.6853 149.362 35.32 148.727 35.32 147.942V126.236C35.32 125.452 34.6853 124.817 33.9012 124.817ZM42.5632 165.165C43.3473 165.165 43.982 164.529 43.982 163.745C43.982 162.96 43.3473 162.325 42.5632 162.325H24.6792C23.8951 162.325 23.2604 162.96 23.2604 163.745C23.2604 164.529 23.8951 165.165 24.6792 165.165H42.5632ZM43.982 170.955C43.982 170.171 43.3473 169.536 42.5632 169.536H2.05349C1.26943 169.536 0.634697 170.171 0.634697 170.955C0.634697 171.74 1.26943 172.375 2.05349 172.375H42.5632C43.3473 172.375 43.982 171.74 43.982 170.955ZM2.05349 165.165H16.8386C17.6227 165.165 18.2574 164.529 18.2574 163.745C18.2574 162.96 17.6227 162.325 16.8386 162.325H2.05349C1.26943 162.325 0.634697 162.96 0.634697 163.745C0.672033 164.529 1.30677 165.165 2.05349 165.165ZM113.838 136.772V200.021V217.729C113.838 220.718 111.411 223.146 108.424 223.146H57.7964C54.8095 223.146 52.3826 220.718 52.3826 217.729V162.475V136.772C52.3826 133.783 54.8095 131.355 57.7964 131.355H108.424C111.411 131.355 113.838 133.783 113.838 136.772ZM111.038 217.691V136.772C111.038 135.352 109.88 134.194 108.462 134.194H57.8337C56.415 134.194 55.2575 135.352 55.2575 136.772V217.691C55.2575 219.111 56.415 220.269 57.8337 220.269H108.462C109.88 220.269 111.038 219.111 111.038 217.691ZM62.3141 151.865V140.806C62.3141 140.022 62.9488 139.387 63.7328 139.387H102.525C103.309 139.387 103.944 140.022 103.944 140.806V151.865C103.944 152.649 103.309 153.284 102.525 153.284H63.7328C62.9488 153.284 62.3141 152.649 62.3141 151.865ZM65.1516 150.482H101.106V142.226H65.1516V150.482ZM59.2152 181.416V174.093C59.2152 173.309 59.8499 172.674 60.634 172.674H71.3494C72.1335 172.674 72.7682 173.309 72.7682 174.093V181.416C72.7682 182.2 72.1335 182.835 71.3494 182.835H60.634C59.8499 182.835 59.2152 182.2 59.2152 181.416ZM62.0527 179.996H69.9306V175.513H62.0527V179.996ZM88.1134 182.835H77.3979C76.6138 182.835 75.9791 182.2 75.9791 181.416V174.093C75.9791 173.309 76.6138 172.674 77.3979 172.674H88.1134C88.8974 172.674 89.5321 173.309 89.5321 174.093V181.416C89.5321 182.2 88.8974 182.835 88.1134 182.835ZM78.8167 179.996H86.6946V175.513H78.8167V179.996ZM94.1618 172.711H104.877C105.661 172.711 106.296 173.346 106.296 174.131V181.453C106.296 182.238 105.661 182.873 104.877 182.873H94.1618C93.3778 182.873 92.7431 182.238 92.7431 181.453V174.131C92.7431 173.346 93.3778 172.711 94.1618 172.711ZM103.459 175.513H95.5806V179.996H103.459V175.513ZM72.7682 189.709V197.032C72.7682 197.816 72.1335 198.452 71.3494 198.452H60.634C59.8499 198.452 59.2152 197.816 59.2152 197.032V189.709C59.2152 188.925 59.8499 188.29 60.634 188.29H71.3494C72.1335 188.29 72.7682 188.925 72.7682 189.709ZM69.9306 191.129H62.0527V195.612H69.9306V191.129ZM89.5321 197.032C89.5321 197.816 88.8974 198.452 88.1134 198.452H77.3979C76.6138 198.452 75.9791 197.816 75.9791 197.032V189.709C75.9791 188.925 76.6138 188.29 77.3979 188.29H88.1134C88.8974 188.29 89.5321 188.925 89.5321 189.709V197.032ZM86.6946 195.612V191.129H78.8167V195.612H86.6946ZM92.7431 197.032V189.709C92.7431 188.925 93.3778 188.29 94.1618 188.29H104.877C105.661 188.29 106.296 188.925 106.296 189.709V197.032C106.296 197.816 105.661 198.452 104.877 198.452H94.1618C93.3778 198.414 92.7431 197.816 92.7431 197.032ZM95.5806 195.612H103.459V191.129H95.5806V195.612ZM72.7682 205.326V212.648C72.7682 213.433 72.1335 214.068 71.3494 214.068H60.634C59.8499 214.068 59.2152 213.433 59.2152 212.648V205.326C59.2152 204.541 59.8499 203.906 60.634 203.906H71.3494C72.1335 203.906 72.7682 204.541 72.7682 205.326ZM69.9306 206.708H62.0527V211.191H69.9306V206.708ZM89.5321 205.326V212.648C89.5321 213.433 88.8974 214.068 88.1134 214.068H77.3979C76.6138 214.068 75.9791 213.433 75.9791 212.648V205.326C75.9791 204.541 76.6138 203.906 77.3979 203.906H88.1134C88.8974 203.906 89.5321 204.541 89.5321 205.326ZM86.6946 206.708H78.8167V211.191H86.6946V206.708ZM106.296 205.326V212.648C106.296 213.433 105.661 214.068 104.877 214.068H94.1618C93.3778 214.068 92.7431 213.433 92.7431 212.648V205.326C92.7431 204.541 93.3778 203.906 94.1618 203.906H104.877C105.661 203.906 106.296 204.541 106.296 205.326ZM103.459 206.708H95.5806V211.191H103.459V206.708ZM59.2152 159.934C59.2152 159.15 59.8499 158.515 60.634 158.515H88.1134C88.8974 158.515 89.5321 159.15 89.5321 159.934V167.033C89.5321 167.817 88.8974 168.452 88.1134 168.452H60.634C59.8499 168.452 59.2152 167.817 59.2152 167.033V159.934ZM62.0527 165.65H86.6946V161.354H62.0527V165.65ZM46.8196 198.825V207.156V214.441C46.8196 215.226 46.5582 215.936 46.1102 216.533C42.6006 220.979 35.5813 223.482 26.6207 223.482C26.0233 223.482 25.4259 223.482 24.8286 223.445C16.8013 223.146 7.24319 220.68 4.40564 216.533C4.03228 215.973 3.80827 215.3 3.80827 214.591V207.156V198.825V188.738C3.80827 188.439 3.92031 188.14 4.06965 187.916C5.63777 182.649 14.0757 179.025 25.2766 179.025C37.4108 179.025 46.3342 183.321 46.7449 189.261C46.7449 189.336 46.7822 189.411 46.7822 189.448V198.825C46.8195 198.825 46.8196 198.825 46.8196 198.825ZM44.0194 214.441V210.668C39.1283 214.665 31.6984 215.487 26.546 215.487C24.5672 215.487 22.9244 215.375 21.879 215.263C16.3159 214.74 10.2674 213.171 6.72051 210.668V214.553C6.72051 214.665 6.75782 214.815 6.83249 214.89C8.54996 217.43 15.8305 220.232 25.0152 220.568C33.9012 220.867 40.8084 218.738 43.982 214.74C43.982 214.703 44.0194 214.591 44.0194 214.441ZM6.68318 189.709C6.68318 192.213 14.1131 195.986 25.3513 195.986C36.9255 195.986 44.0194 192.325 44.0194 189.709C44.0194 185.376 35.6561 181.827 25.3513 181.827C15.0465 181.827 6.68318 185.338 6.68318 189.709ZM6.68318 194.193V198.452C7.95261 200.656 13.889 203.346 22.103 204.13C30.0556 204.915 39.9124 203.757 44.0194 198.302V194.342C40.0617 197.256 32.5572 198.788 25.3513 198.788C17.3613 198.788 10.3795 196.957 6.68318 194.193ZM6.68318 206.783C7.95261 208.987 13.889 211.677 22.103 212.461C30.0929 213.208 39.9124 212.088 44.0194 206.633V202.337C39.1283 206.334 31.6984 207.156 26.546 207.156C24.5672 207.156 22.9244 207.044 21.879 206.932C16.3159 206.409 10.2674 204.84 6.72051 202.337V206.783H6.68318ZM201.13 148.054L201.317 147.793L219.014 124.443L216.475 123.136C216.064 122.911 215.766 122.5 215.728 122.052C215.728 122.015 215.728 121.94 215.728 121.903C215.728 121.492 215.915 121.081 216.214 120.819L225.959 112.563C226.407 112.189 227.004 112.115 227.527 112.376C228.012 112.638 228.273 113.123 228.273 113.609C228.273 113.646 228.273 113.684 228.273 113.721L227.116 126.423C227.079 126.909 226.817 127.32 226.369 127.544C226.145 127.656 225.921 127.731 225.697 127.731C225.473 127.731 225.249 127.693 225.062 127.581L221.553 125.751L202.399 150.968C202.175 151.267 201.802 151.491 201.391 151.528C200.981 151.566 200.607 151.416 200.309 151.155L199.973 150.819L182.313 134.418L170.701 148.839C170.29 149.362 169.581 149.511 168.984 149.212L157.447 143.496L139.301 167.182C139.04 167.556 138.592 167.742 138.181 167.742C137.882 167.742 137.584 167.63 137.322 167.443C136.688 166.958 136.576 166.099 137.061 165.463L155.916 140.844C156.327 140.321 157.073 140.134 157.671 140.433L169.245 146.149L181.118 131.429C181.379 131.13 181.715 130.944 182.126 130.906C182.499 130.869 182.91 131.018 183.171 131.28L201.13 148.054ZM219.649 121.604L224.502 124.144L225.174 116.971L219.649 121.604ZM245 192.1C245 206.185 233.538 217.617 219.499 217.617C212.144 217.617 205.498 214.479 200.831 209.472H132.767C130.527 209.472 128.698 207.642 128.698 205.4V200.319V138.378C128.698 137.594 129.332 136.958 130.117 136.958C130.901 136.958 131.535 137.594 131.535 138.378V200.058V205.4C131.535 206.11 132.095 206.671 132.805 206.671H198.591C197.471 205.101 196.575 203.383 195.828 201.552H188.51H175.891H163.308H150.726H138.181C137.397 201.552 136.762 200.917 136.762 200.133V199.348V180.519C136.762 179.735 137.397 179.1 138.181 179.1C138.965 179.1 139.6 179.735 139.6 180.519V198.713H140.272H149.382V196.285V172.898V164.492C149.382 163.708 150.017 163.072 150.801 163.072C151.585 163.072 152.22 163.708 152.22 164.492V172.898V195.313V198.713H161.964V190.98V175.214V159C161.964 158.216 162.599 157.581 163.383 157.581C164.167 157.581 164.802 158.216 164.802 159V175.214V189.485V198.75H174.547V183.022V175.252V154.33C174.547 153.546 175.181 152.911 175.965 152.911C176.749 152.911 177.384 153.546 177.384 154.33V175.252V180.743V198.75H187.129V171.105V162.138V148.876C187.129 148.091 187.764 147.456 188.548 147.456C189.332 147.456 189.966 148.091 189.966 148.876V162.138V167.63V198.713H194.932C194.372 196.584 194.036 194.379 194.036 192.063C194.036 186.011 196.164 180.444 199.711 176.036V172.375V158.253C199.711 157.469 200.346 156.833 201.13 156.833C201.914 156.833 202.549 157.469 202.549 158.253V172.375V173.047C205.312 170.544 208.635 168.676 212.293 167.556V147.27C212.293 146.485 212.928 145.85 213.712 145.85C214.496 145.85 215.131 146.485 215.131 147.27V166.92C216.587 166.659 218.081 166.51 219.574 166.51C221.404 166.51 223.158 166.696 224.876 167.07V136.435C224.876 135.651 225.51 135.016 226.295 135.016C227.079 135.016 227.713 135.651 227.713 136.435V167.929C237.682 171.291 245 180.855 245 192.1ZM242.162 192.1C242.162 179.585 231.97 169.386 219.462 169.386C206.954 169.386 196.762 179.585 196.762 192.1C196.762 204.616 206.954 214.815 219.462 214.815C232.007 214.815 242.162 204.616 242.162 192.1ZM212.928 204.541H210.315C209.531 204.541 208.896 203.906 208.896 203.121C208.896 202.337 209.531 201.702 210.315 201.702H212.928V183.844H210.315C209.531 183.844 208.896 183.209 208.896 182.424C208.896 181.64 209.531 181.005 210.315 181.005H212.928V177.456C212.928 176.671 213.563 176.036 214.347 176.036C215.131 176.036 215.766 176.671 215.766 177.456V181.005H218.939V177.456C218.939 176.671 219.574 176.036 220.358 176.036C221.142 176.036 221.777 176.671 221.777 177.456V181.005C225.324 181.005 228.199 183.881 228.199 187.431V187.543C228.199 189.112 227.639 190.569 226.668 191.69C228.945 192.661 230.588 194.977 230.588 197.592V198.041C230.588 201.59 227.713 204.466 224.166 204.466H221.777V207.343C221.777 208.128 221.142 208.763 220.358 208.763C219.574 208.763 218.939 208.128 218.939 207.343V204.466H215.766V207.343C215.766 208.128 215.131 208.763 214.347 208.763C213.563 208.763 212.928 208.128 212.928 207.343V204.541ZM215.728 183.844V191.204H221.702C223.681 191.204 225.324 189.56 225.324 187.58V187.468C225.324 185.488 223.681 183.844 221.702 183.844H215.728ZM215.728 201.739H224.092C226.071 201.739 227.713 200.095 227.713 198.115V197.667C227.713 195.687 226.071 194.043 224.092 194.043H221.702H215.728V201.739ZM52.6813 93.0989V68.9649V11.8055C52.6813 5.30499 57.9831 0 64.4422 0H186.98C193.476 0 198.74 5.30499 198.74 11.8055V78.4167V93.0989C198.74 99.5994 193.439 104.904 186.98 104.904H139.413V118.765H157.783C158.567 118.765 159.201 119.4 159.201 120.184C159.201 120.969 158.567 121.604 157.783 121.604H137.994H112.083H92.295C91.5109 121.604 90.8763 120.969 90.8763 120.184C90.8763 119.4 91.5109 118.765 92.295 118.765H110.664V104.904H64.4049C57.9831 104.867 52.6813 99.5994 52.6813 93.0989ZM64.4422 2.80193C59.5139 2.80193 55.4815 6.83671 55.4815 11.7681V93.0989C55.4815 98.0303 59.5139 102.065 64.4422 102.065H186.98C191.908 102.065 195.94 98.0303 195.94 93.0989V11.8055C195.94 6.87407 191.908 2.83929 186.98 2.83929H64.4422V2.80193ZM136.613 118.727V104.867H113.539V118.727H136.613ZM57.9831 12.59C57.9831 8.55523 61.2686 5.26763 65.2636 5.26763H186.046C190.078 5.26763 193.327 8.55523 193.327 12.59V91.7539C193.327 92.6506 192.58 93.3977 191.684 93.3977H59.5885C58.6925 93.3977 57.9457 92.6506 57.9457 91.7539V12.59H57.9831ZM60.7833 12.59V90.5585H190.526V12.59C190.526 10.1243 188.51 8.10692 186.046 8.10692H65.2636C62.7994 8.10692 60.7833 10.1243 60.7833 12.59ZM130.639 96.125H119.55C118.766 96.125 118.132 96.7601 118.132 97.5446C118.132 98.3291 118.766 98.9643 119.55 98.9643H130.639C131.423 98.9643 132.058 98.3291 132.058 97.5446C132.021 96.7601 131.423 96.125 130.639 96.125ZM71.8721 40.1237C71.8721 40.9082 72.5068 41.5433 73.2909 41.5433V55.9639C72.5068 55.9639 71.8721 56.599 71.8721 57.3836C71.8721 58.1681 72.5068 58.8032 73.2909 58.8032V74.4193C73.2909 75.2039 73.9256 75.839 74.7097 75.839H85.7238C85.7238 76.6235 86.3586 77.2586 87.1426 77.2586C87.9267 77.2586 88.5614 76.6235 88.5614 75.839H99.1649C99.1649 76.6235 99.7996 77.2586 100.584 77.2586C101.368 77.2586 102.002 76.6235 102.002 75.839H112.606C112.606 76.6235 113.241 77.2586 114.025 77.2586C114.809 77.2586 115.443 76.6235 115.443 75.839H126.047C126.047 76.6235 126.682 77.2586 127.466 77.2586C128.25 77.2586 128.884 76.6235 128.884 75.839H139.488C139.488 76.6235 140.123 77.2586 140.907 77.2586C141.691 77.2586 142.326 76.6235 142.326 75.839H152.929C152.929 76.6235 153.564 77.2586 154.348 77.2586C155.132 77.2586 155.767 76.6235 155.767 75.839H166.37C166.37 76.6235 167.005 77.2586 167.789 77.2586C168.573 77.2586 169.208 76.6235 169.208 75.839H178.803C179.587 75.839 180.222 75.2039 180.222 74.4193C180.222 73.6348 179.587 72.9997 178.803 72.9997H169.208C169.208 72.2151 168.573 71.58 167.789 71.58C167.005 71.58 166.37 72.2151 166.37 72.9997H155.767C155.767 72.2151 155.132 71.58 154.348 71.58C153.564 71.58 152.929 72.2151 152.929 72.9997H142.326C142.326 72.2151 141.691 71.58 140.907 71.58C140.123 71.58 139.488 72.2151 139.488 72.9997H128.884C128.884 72.2151 128.25 71.58 127.466 71.58C126.682 71.58 126.047 72.2151 126.047 72.9997H115.443C115.443 72.2151 114.809 71.58 114.025 71.58C113.241 71.58 112.606 72.2151 112.606 72.9997H102.002C102.002 72.2151 101.368 71.58 100.584 71.58C99.7996 71.58 99.1649 72.2151 99.1649 72.9997H88.5614C88.5614 72.2151 87.9267 71.58 87.1426 71.58C86.3586 71.58 85.7238 72.2151 85.7238 72.9997H76.1285V58.8032H76.5765C77.3605 58.8032 77.9953 58.1681 77.9953 57.3836C77.9953 56.599 77.3605 55.9639 76.5765 55.9639H76.1285V41.5433H76.5765C77.3605 41.5433 77.9953 40.9082 77.9953 40.1237C77.9953 39.3391 77.3605 38.704 76.5765 38.704H76.1285V24.2834H76.5765C77.3605 24.2834 77.9953 23.6483 77.9953 22.8638C77.9953 22.0792 77.3605 21.4441 76.5765 21.4441H76.1285V20.6222C76.1285 19.8377 75.4937 19.2026 74.7097 19.2026C73.9256 19.2026 73.2909 19.8377 73.2909 20.6222V21.4441C72.5068 21.4441 71.8721 22.0792 71.8721 22.8638C71.8721 23.6483 72.5068 24.2834 73.2909 24.2834V38.704C72.5068 38.704 71.8721 39.3391 71.8721 40.1237ZM99.1275 25.8151C99.2022 25.2921 99.6129 24.8438 100.098 24.6944C100.621 24.5449 101.181 24.6944 101.554 25.1053L118.244 43.5233L124.628 25.591C124.815 25.0306 125.375 24.657 125.972 24.657C126.57 24.657 127.092 25.0306 127.316 25.591L135.68 49.4261L152.78 41.2071C153.116 41.0576 153.489 41.0203 153.825 41.1324L173.763 47.5581L177.347 35.4911C177.571 34.744 178.355 34.333 179.102 34.5572C179.848 34.7813 180.259 35.5659 180.035 36.313L176.04 49.7623C175.928 50.1359 175.667 50.4348 175.331 50.6216C174.995 50.8084 174.584 50.8457 174.248 50.7337L153.452 44.0464L135.456 52.7137C135.082 52.9005 134.672 52.9005 134.298 52.751C133.925 52.6016 133.626 52.3027 133.514 51.9291L125.935 30.3356L120.372 45.9517L134.597 61.6051L177.87 66.9475C178.654 67.0596 179.176 67.732 179.102 68.5166C178.99 69.3011 178.318 69.8242 177.533 69.7494L133.738 64.3697C133.402 64.3324 133.103 64.1829 132.879 63.9214L119.326 48.9778L114.622 62.1655C114.473 62.5391 114.174 62.838 113.801 62.9874C113.427 63.1369 112.979 63.0995 112.643 62.9127L100.546 56.6364L96.6634 59.5504L95.2446 68.5539C95.1326 69.2638 94.5352 69.7494 93.8631 69.7494C93.7885 69.7494 93.7138 69.7494 93.6391 69.7494C92.855 69.6374 92.3323 68.8902 92.4817 68.143L93.4524 62.0161L83.4837 69.4879C83.2223 69.6747 82.9236 69.7868 82.6249 69.7868C82.2142 69.7868 81.7662 69.6 81.5048 69.2264C81.0195 68.5913 81.1688 67.732 81.8035 67.2464L94.0872 58.0187L99.1275 25.8151ZM101.442 29.1775L97.2981 55.4783L99.5756 53.7597C100.024 53.4235 100.584 53.3861 101.069 53.6477L112.531 59.5878L117.198 46.5121L101.442 29.1775Z" fill="url(#paint0_linear_1_1762)"/>
<defs>
<linearGradient id="paint0_linear_1_1762" x1="24.7267" y1="34.8801" x2="218.821" y2="228.856" gradientUnits="userSpaceOnUse">
<stop stop-color="#1EB4FF"/>
<stop offset="1" stop-color="#5C52B3"/>
</linearGradient>
</defs>
</svg>
