<svg width="231" height="235" viewBox="0 0 231 235" fill="none" xmlns="http://www.w3.org/2000/svg">
<path d="M9.15061 157.185C9.74577 158.926 10.4154 160.629 11.1221 162.333C11.4197 163.037 11.0849 163.852 10.3409 164.148C10.1549 164.222 10.0062 164.259 9.82019 164.259C9.26222 164.259 8.74145 163.926 8.51826 163.407C7.81151 161.666 7.14198 159.889 6.50962 158.111C6.24923 157.37 6.62114 156.592 7.36509 156.333C8.07185 156.074 8.89022 156.444 9.15061 157.185ZM1.78542 110.259C1.82262 110.259 1.85987 110.259 1.93427 110.259C2.64103 110.259 3.27341 109.703 3.3478 109C3.64539 105.777 4.12894 102.518 4.7241 99.333C4.8729 98.5923 4.35213 97.8515 3.60817 97.7034C2.82702 97.5552 2.1202 98.0737 1.97141 98.8145C1.37625 102.074 0.892748 105.407 0.557967 108.74C0.446374 109.518 1.00427 110.185 1.78542 110.259ZM4.94724 149.555C5.05883 149.555 5.17048 149.555 5.28207 149.518C6.02603 149.333 6.47238 148.555 6.28639 147.815C5.46804 144.666 4.79852 141.444 4.27775 138.259C4.16616 137.481 3.42218 137 2.67822 137.111C1.89707 137.222 1.37626 137.963 1.52506 138.703C2.08302 142 2.75258 145.296 3.57094 148.518C3.71973 149.148 4.31487 149.555 4.94724 149.555ZM1.82266 130.037C2.60381 129.963 3.16178 129.296 3.12458 128.555C2.90139 125.703 2.78984 122.852 2.78984 119.963C2.78984 119.555 2.78984 119.148 2.78984 118.777C2.78984 118 2.1946 117.37 1.41344 117.37C0.63229 117.333 0 118 0 118.74C0 119.148 0 119.555 0 119.963C0 122.889 0.111557 125.852 0.334744 128.74C0.371942 129.481 1.00432 130.037 1.74828 130.037C1.74828 130.037 1.78546 130.037 1.82266 130.037ZM5.17046 90.7774C5.28205 90.8145 5.43084 90.8145 5.54244 90.8145C6.1748 90.8145 6.7328 90.4071 6.8816 89.7774C7.77434 86.6663 8.77867 83.5181 9.9318 80.4811C10.1922 79.7774 9.82022 78.9626 9.11347 78.6663C8.36951 78.407 7.5883 78.7774 7.29072 79.4811C6.10039 82.5922 5.05888 85.8144 4.16614 88.9996C4.01735 89.7774 4.4265 90.5552 5.17046 90.7774ZM11.9404 72.1478C12.1264 72.2589 12.3497 72.2959 12.5356 72.2959C13.0564 72.2959 13.5771 71.9996 13.8003 71.5181C14.5815 69.8514 15.4371 68.2218 16.3298 66.5922C16.7018 65.9255 16.4414 65.0737 15.7718 64.7033C15.1023 64.3329 14.2467 64.5922 13.8747 65.2588C12.982 66.9255 12.0893 68.5922 11.3081 70.2959C10.9733 70.9626 11.2709 71.8144 11.9404 72.1478ZM134.284 230.667C132.461 230.963 130.639 231.222 128.779 231.444C127.998 231.519 127.477 232.222 127.551 233C127.626 233.704 128.258 234.222 128.928 234.222C128.965 234.222 129.039 234.222 129.076 234.222C130.974 234 132.833 233.741 134.693 233.407C135.474 233.296 135.958 232.556 135.846 231.815C135.772 231.037 135.065 230.518 134.284 230.667ZM92.9201 229.963C89.0143 229.185 85.1085 228.148 81.3144 226.963C80.5704 226.741 79.7893 227.148 79.5661 227.889C79.3429 228.63 79.7521 229.407 80.496 229.63C84.4018 230.852 88.4192 231.889 92.3993 232.704C92.5109 232.741 92.5853 232.741 92.6969 232.741C93.3665 232.741 93.9245 232.296 94.0732 231.63C94.1848 230.852 93.7012 230.111 92.9201 229.963ZM116.801 232.185C112.821 232.222 108.766 232.074 104.786 231.704C104.005 231.63 103.335 232.185 103.261 232.963C103.187 233.741 103.745 234.407 104.526 234.481C108.134 234.815 111.817 235 115.499 235C115.946 235 116.392 235 116.838 235C117.619 235 118.252 234.37 118.215 233.593C118.215 232.815 117.619 232.148 116.801 232.185ZM70.0806 222.704C68.4067 221.963 66.6956 221.185 65.0589 220.37C64.3522 220.037 63.5338 220.296 63.1618 221C62.827 221.704 63.0875 222.518 63.7943 222.889C65.4682 223.741 67.2164 224.556 68.9275 225.296C69.1135 225.37 69.2995 225.407 69.4854 225.407C70.0062 225.407 70.527 225.111 70.7874 224.556C71.1222 223.852 70.7874 223.037 70.0806 222.704ZM197.967 43.444C198.227 43.7403 198.636 43.8884 199.008 43.8884C199.343 43.8884 199.678 43.7773 199.975 43.5181C200.533 42.9995 200.571 42.1106 200.05 41.5551C198.748 40.1847 197.409 38.8143 196.07 37.518C195.512 36.9625 194.619 36.9995 194.098 37.5551C193.54 38.1106 193.577 38.9995 194.135 39.518C195.4 40.7773 196.702 42.1106 197.967 43.444ZM227.576 107.889C227.651 108.592 228.246 109.148 228.953 109.148C228.99 109.148 229.064 109.148 229.101 109.148C229.882 109.074 230.44 108.37 230.366 107.592C229.92 103.518 229.25 99.4441 228.395 95.4441C228.246 94.7034 227.465 94.2219 226.721 94.37C225.977 94.5182 225.493 95.296 225.642 96.0367C226.497 99.9256 227.167 103.926 227.576 107.889ZM212.437 62.6292C212.697 63.0737 213.181 63.2959 213.627 63.2959C213.887 63.2959 214.111 63.2218 214.334 63.1107C215.003 62.7033 215.227 61.8514 214.817 61.1848C212.697 57.6662 210.391 54.2218 207.936 50.9625C207.452 50.3329 206.597 50.2218 205.964 50.7033C205.332 51.1847 205.22 52.0366 205.667 52.6662C208.122 55.8514 210.391 59.1848 212.437 62.6292ZM222.48 84.4441C222.666 85.0367 223.224 85.407 223.819 85.407C223.968 85.407 224.117 85.37 224.266 85.333C225.01 85.0737 225.381 84.2959 225.158 83.5552C223.856 79.6663 222.331 75.8144 220.62 72.1107C220.285 71.407 219.467 71.1107 218.76 71.407C218.054 71.7403 217.756 72.5552 218.054 73.2589C219.69 76.8885 221.215 80.6663 222.48 84.4441ZM229.622 118.481C228.841 118.481 228.209 119.111 228.209 119.889V119.963C228.209 123.926 227.985 127.963 227.576 131.889C227.502 132.666 228.06 133.333 228.841 133.407C228.878 133.407 228.953 133.407 228.99 133.407C229.696 133.407 230.292 132.889 230.366 132.148C230.775 128.111 230.998 124 230.998 119.926V119.852C231.036 119.111 230.403 118.481 229.622 118.481ZM225.679 143.778C225.307 145.555 224.861 147.37 224.377 149.148C224.191 149.889 224.638 150.666 225.382 150.852C225.493 150.889 225.642 150.889 225.754 150.889C226.386 150.889 226.944 150.481 227.093 149.852C227.576 148.037 228.023 146.185 228.432 144.37C228.581 143.629 228.097 142.889 227.353 142.703C226.609 142.555 225.865 143.037 225.679 143.778ZM156.268 42.9255C160.062 42.9255 163.15 45.9995 163.15 49.7773C163.15 53.5551 160.062 56.6292 156.268 56.6292C152.474 56.6292 149.386 53.5551 149.386 49.7773C149.386 45.9995 152.474 42.9255 156.268 42.9255ZM156.268 45.7403C154.036 45.7403 152.176 47.5551 152.176 49.8144C152.176 52.0366 153.999 53.8884 156.268 53.8884C158.537 53.8884 160.36 52.0736 160.36 49.8144C160.36 47.5551 158.537 45.7403 156.268 45.7403ZM118.698 27.0365C131.308 27.0365 141.612 37.2588 141.612 49.8514C141.612 62.444 131.345 72.6663 118.698 72.6663C106.051 72.6663 95.7844 62.444 95.7844 49.8514C95.7844 37.2588 106.051 27.0365 118.698 27.0365ZM98.6114 49.8144C98.6114 60.8514 107.613 69.8144 118.698 69.8144C129.783 69.8144 138.785 60.8514 138.785 49.8144C138.785 38.7773 129.783 29.8143 118.698 29.8143C107.613 29.8143 98.6114 38.8143 98.6114 49.8144ZM111.668 33.5551C111.668 32.7773 112.3 32.1477 113.081 32.1477C113.863 32.1477 114.495 32.7773 114.495 33.5551V36.8514H118.512V33.5551C118.512 32.7773 119.145 32.1477 119.926 32.1477C120.707 32.1477 121.339 32.7773 121.339 33.5551V36.8514H121.525C125.468 36.8514 128.667 40.0366 128.667 43.9625C128.667 45.8884 127.886 47.6662 126.621 48.9625C129.411 50.1107 131.383 52.8144 131.383 55.9996C131.383 59.9255 128.184 63.1107 124.241 63.1107H121.339V66.1107C121.339 66.8885 120.707 67.5181 119.926 67.5181C119.145 67.5181 118.512 66.8885 118.512 66.1107V63.1107H114.495V66.1107C114.495 66.8885 113.863 67.5181 113.081 67.5181C112.3 67.5181 111.668 66.8885 111.668 66.1107V63.1107H108.357C107.576 63.1107 106.944 62.4811 106.944 61.7033C106.944 60.9255 107.576 60.2959 108.357 60.2959H111.668V39.6662H108.357C107.576 39.6662 106.944 39.0366 106.944 38.2588C106.944 37.481 107.576 36.8514 108.357 36.8514H111.668V33.5551ZM123.683 51.1847H121.376H114.495V60.2959H124.203C126.584 60.2959 128.518 58.3699 128.518 55.9996C128.518 53.3329 126.361 51.1847 123.683 51.1847ZM114.495 39.6662V48.3699H121.376C123.831 48.3699 125.803 46.4069 125.803 43.9625C125.803 41.5921 123.869 39.6662 121.488 39.6662H114.495ZM40.62 88.37C39.7272 87.4441 39.1693 86.333 38.8717 85.1478C38.7229 84.5922 38.6857 83.9996 38.6857 83.37C38.7229 81.5181 39.504 79.7774 40.8431 78.4811C41.5127 77.8515 42.2939 77.37 43.1495 77.0366C44.005 76.7033 44.9349 76.5552 45.8648 76.5552C49.2126 76.6292 51.9653 79.0367 52.5604 82.1848L64.8357 82.5922L65.0589 78.7774C65.0961 78.0367 65.7285 77.4441 66.5096 77.4441L76.739 77.7033L89.5723 77.9996H162.926C163.447 70.407 168.208 64.2959 174.235 63.4811V36.1106C172.821 35.9254 171.407 35.4069 170.106 34.6291C165.084 32.0736 161.848 27.1476 161.587 21.5921H76.4415C76.2927 21.5921 76.1439 21.555 75.9951 21.518L66.1749 21.481C65.4309 21.481 64.7985 20.8884 64.7613 20.1106L64.6497 16.2958L52.3745 16.4069C52.0769 17.7032 51.4446 18.8884 50.4774 19.8513C49.1383 21.1847 47.39 21.8884 45.5301 21.8884C43.6702 21.8884 41.8847 21.1476 40.5828 19.8513C39.2436 18.518 38.5369 16.7772 38.5369 14.9254C38.5369 13.0735 39.2808 11.2958 40.5828 9.99945C41.9219 8.66612 43.6702 7.96241 45.5301 7.96241C47.39 7.96241 49.1755 8.70316 50.4774 9.99945C51.4818 10.9995 52.1513 12.2587 52.4117 13.6661L65.9889 13.518C66.77 13.4809 67.3652 14.1106 67.4024 14.8884L67.514 18.7402L76.7763 18.7773L89.5351 18.8513C89.5723 18.8513 89.6095 18.8513 89.6095 18.8513H163.001C163.373 18.8513 163.745 18.9995 164.005 19.2958C164.266 19.555 164.414 19.9254 164.377 20.3328V20.5921C164.377 20.7032 164.377 20.7773 164.377 20.8884C164.377 25.7032 167.093 30.0365 171.407 32.2217C171.445 32.2217 171.482 32.2588 171.519 32.2958C172.784 33.0736 174.16 33.481 175.536 33.481C175.574 33.481 175.648 33.481 175.685 33.481C175.722 33.481 175.797 33.481 175.797 33.518C176.504 33.5921 177.024 34.1847 177.024 34.8884V64.8514C177.024 65.6292 176.392 66.2588 175.611 66.2588C170.106 66.2588 165.642 72.1848 165.642 79.4811C165.642 80.2589 165.01 80.8885 164.228 80.8885H89.8699C89.8327 80.8885 89.8327 80.8885 89.7955 80.8885H89.7583H89.5351H76.8135H76.7019C76.3671 80.8885 76.0695 80.7774 75.8091 80.5552L67.7744 80.37L67.5512 84.2219C67.514 84.9626 66.8816 85.5552 66.1376 85.5552H66.1005L52.5233 85.0737C52.2257 86.4441 51.5561 87.7033 50.5146 88.6663C49.2126 89.9256 47.5015 90.5922 45.6788 90.5922C45.6045 90.5922 45.5673 90.5922 45.4929 90.5922C43.6702 90.4811 41.9219 89.7033 40.62 88.37ZM45.4929 19.1476C46.6088 19.1476 47.6875 18.7032 48.4687 17.9254C49.2498 17.1476 49.6962 16.0735 49.6962 14.9624C49.6962 13.8513 49.2498 12.7772 48.4687 11.9995C47.6875 11.2217 46.6088 10.7772 45.4929 10.7772C44.3769 10.7772 43.2982 11.2217 42.517 11.9995C41.7359 12.7772 41.2896 13.8513 41.2896 14.9624C41.2896 16.0735 41.7359 17.1476 42.517 17.9254C43.3354 18.7032 44.3769 19.1476 45.4929 19.1476ZM41.5127 83.4441C41.4755 84.5552 41.8847 85.6293 42.6659 86.4441C43.447 87.2589 44.4885 87.7033 45.6045 87.7404C46.7204 87.7774 47.7992 87.37 48.6175 86.5922C49.4359 85.8144 49.8823 84.7774 49.9195 83.6663C49.9938 81.37 48.134 79.4441 45.8277 79.37C45.7905 79.37 45.7533 79.37 45.7161 79.37C44.6373 79.37 43.5958 79.7774 42.8146 80.5181C41.9963 81.2959 41.5499 82.333 41.5127 83.4441ZM55.9827 71.0366L47.3156 70.7403L39.4297 70.4811C39.1321 71.9255 38.4253 73.2589 37.3466 74.2959C35.9703 75.5922 34.222 76.2959 32.3249 76.2959C32.2505 76.2959 32.2133 76.2959 32.1389 76.2959C28.1215 76.1848 24.9597 72.8515 25.0341 68.8144C25.1457 64.7774 28.4563 61.6292 32.4736 61.7033C35.9702 61.7774 38.8345 64.3329 39.4297 67.6663L49.3615 67.9996L54.6808 68.1848L54.9039 64.37C54.9411 63.6292 55.5735 63.0366 56.3547 63.0366L76.6646 63.5181L83.3975 63.6662C84.1786 63.6662 84.7738 64.3329 84.7738 65.1107C84.7738 65.8885 84.1043 66.4811 83.3231 66.4811L76.6646 66.3329L57.6566 65.8885L57.4334 69.7403C57.3962 70.4811 56.7638 71.0737 56.0199 71.0737C56.0199 71.0737 55.9827 71.0366 55.9827 71.0366ZM35.3751 72.2959C36.2306 71.4811 36.7514 70.3329 36.7514 69.1477C36.8258 66.6663 34.8543 64.5922 32.3992 64.5551C32.362 64.5551 32.3248 64.5551 32.2876 64.5551C29.8698 64.5551 27.8983 66.5181 27.8239 68.9626C27.7495 71.444 29.7211 73.5181 32.1761 73.5552C33.4036 73.5552 34.5195 73.1107 35.3751 72.2959ZM76.5159 35.9625L56.2431 35.3328C55.4991 35.2958 54.904 34.7032 54.8668 33.9625L54.8295 30.1476L39.5784 29.9254C39.2437 31.2958 38.5741 32.518 37.5326 33.518C36.1562 34.8143 34.4079 35.5551 32.5109 35.5551C32.4365 35.5551 32.3993 35.5551 32.3249 35.5551C30.3906 35.518 28.5679 34.7032 27.2288 33.2958C25.8897 31.8884 25.1828 30.0365 25.22 28.1106C25.3316 24.0736 28.6422 20.8884 32.6596 20.9995C36.2306 21.0736 39.132 23.7402 39.6528 27.1847L56.2058 27.4069C56.987 27.4069 57.5821 28.0365 57.5821 28.7773L57.6194 32.6291L76.4415 33.1847L83.3603 33.4069C84.1414 33.444 84.7366 34.0736 84.7366 34.8514C84.6994 35.5921 84.1043 36.2217 83.3231 36.2217H83.2859L76.5159 35.9625ZM35.5611 31.481C36.4166 30.6662 36.9374 29.518 36.9374 28.3328C37.0118 25.8513 35.0403 23.7773 32.5852 23.7402C32.548 23.7402 32.5108 23.7402 32.4736 23.7402C30.0558 23.7402 28.0843 25.7032 28.0099 28.1476C27.9727 29.3699 28.4191 30.481 29.2374 31.3699C30.0558 32.2217 31.1718 32.7402 32.3621 32.7402C33.5896 32.7402 34.7055 32.3328 35.5611 31.481ZM76.5903 53.1847L64.5754 53.2218L47.6503 53.2588C46.8692 53.2588 46.274 52.6292 46.2368 51.8884L46.1624 48.0736L30.9113 47.9625C30.1674 51.2218 27.2659 53.6292 23.8437 53.6292C23.8065 53.6292 23.7693 53.6292 23.7321 53.6292C21.7978 53.5922 19.9752 52.8144 18.6361 51.407C17.2969 49.9995 16.553 48.1477 16.5902 46.2218C16.6274 44.2588 17.4086 42.444 18.7849 41.1106C20.1984 39.7403 22.0211 38.9995 23.9554 39.0366C25.8896 39.0736 27.7123 39.8514 29.0514 41.2588C30.093 42.3329 30.7625 43.7032 30.9857 45.1477L47.5387 45.2588C48.3199 45.2588 48.9151 45.8884 48.9151 46.6292L48.9895 50.444L68.4811 50.407L76.553 50.3699L83.3231 50.3329C84.1043 50.3329 84.7366 50.9625 84.7366 51.7403C84.7366 52.5181 84.1043 53.1477 83.3231 53.1477L76.5903 53.1847ZM28.3075 46.4069C28.3447 45.1847 27.8983 44.0736 27.0428 43.1847C26.2244 42.3329 25.1085 41.8514 23.9181 41.8143C23.8809 41.8143 23.8809 41.8143 23.8437 41.8143C22.6906 41.8143 21.5747 42.2588 20.7563 43.0736C19.9008 43.9255 19.4172 45.0366 19.38 46.2218C19.3428 47.444 19.7892 48.5551 20.6448 49.444C21.4631 50.2958 22.579 50.7773 23.7694 50.8144C23.8066 50.8144 23.8065 50.8144 23.8437 50.8144C26.2616 50.8144 28.2703 48.8514 28.3075 46.4069ZM76.739 13.3328C76.6274 13.3328 76.5531 13.3328 76.4415 13.3328C75.9579 13.3328 75.5115 13.2958 75.028 13.1846C71.4198 12.4069 69.1135 8.8513 69.8947 5.2587C70.2666 3.51796 71.3081 2.03647 72.8333 1.07351C74.3212 0.110541 76.1439 -0.222793 77.8922 0.147578C79.6405 0.517949 81.1284 1.55499 82.0956 3.07351C82.8395 4.22166 83.2115 5.555 83.1371 6.92537C94.0361 9.33279 100.099 10.518 113.193 10.555L184.39 10.592C185.171 10.592 185.803 11.2217 185.803 11.9995V73.8515V87.7404C185.803 88.5182 185.171 89.1478 184.39 89.1478H103.633C98.7601 89.1478 90.1675 90.9626 84.1042 92.4071C84.439 95.7404 82.2072 98.8515 78.8594 99.5552C78.3758 99.6663 77.8922 99.7034 77.4458 99.7034C74.3584 99.7034 71.5685 97.5552 70.899 94.4441C70.527 92.7033 70.8618 90.9256 71.8289 89.4071C72.7961 87.9256 74.284 86.8885 76.0323 86.4811C76.2927 86.407 76.5902 86.37 76.8506 86.37C78.3385 86.2219 79.8265 86.5922 81.0912 87.407C82.0212 87.9996 82.7651 88.7774 83.2859 89.7033C89.4607 88.2219 98.4254 86.333 103.67 86.333H183.05V13.3698L113.23 13.3328C99.7645 13.3328 93.5897 12.1106 82.4675 9.62908C81.3888 11.8143 79.1941 13.2217 76.739 13.3328ZM75.6231 10.4809C77.7062 10.9254 79.7892 9.59204 80.2728 7.51797C80.496 6.51796 80.31 5.48092 79.7521 4.59203C79.1941 3.70314 78.3013 3.11055 77.297 2.88832C76.2926 2.6661 75.2511 2.85129 74.3584 3.40684C73.4657 3.9624 72.8704 4.85129 72.6473 5.85129C72.2009 7.96241 73.54 10.0365 75.6231 10.4809ZM78.2642 96.7774C80.3472 96.333 81.6864 94.2589 81.24 92.1478C81.0168 91.1478 80.4216 90.2589 79.5289 89.7033C78.8965 89.2959 78.1526 89.0737 77.4458 89.0737C77.1855 89.0737 76.8879 89.1108 76.6275 89.1478C75.6232 89.37 74.7304 89.9626 74.1724 90.8515C73.6144 91.7404 73.4285 92.7774 73.6517 93.7774C74.0981 95.8885 76.1811 97.2219 78.2642 96.7774ZM101.066 198.667L95.3008 201.37L73.5401 211.593C72.2753 212.185 70.899 212.63 69.5227 212.852L47.7247 216.518C46.46 216.741 45.1953 216.852 43.9678 216.852C40.8804 216.852 37.7929 216.222 34.9287 214.963L7.88592 203.185C4.53812 201.741 2.52943 198.333 2.86421 194.704L3.45932 188.074C3.8313 183.963 5.80284 180.259 9.00185 177.592C12.2009 174.963 16.2182 173.704 20.3472 174.074L24.2157 174.407C21.8351 169.296 20.4959 163.629 20.4959 157.666C20.4959 146.852 24.8853 137 31.9529 129.852C39.2065 122.518 49.2498 117.963 60.372 117.963C82.3559 117.963 100.248 135.778 100.248 157.666C100.248 168.333 96.0075 178 89.1259 185.148L94.3336 183.259C96.3795 182.37 98.6485 182.333 100.732 183.148C102.852 183.963 104.489 185.555 105.419 187.592C107.204 191.815 105.307 196.778 101.066 198.667ZM47.2412 213.741L69.0391 210.074C70.1922 209.889 71.271 209.518 72.3498 209.037L99.8389 196.148C99.8761 196.148 99.8761 196.148 99.9133 196.111C102.778 194.852 104.079 191.518 102.815 188.704C102.22 187.333 101.104 186.259 99.6901 185.741C98.2766 185.185 96.7515 185.222 95.3752 185.852C95.338 185.889 95.2636 185.889 95.1892 185.926L65.9517 196.555C65.9889 197.926 65.6541 199.37 64.9473 200.741C62.8271 204.889 57.731 206.518 53.5649 204.407C53.5277 204.407 53.5276 204.37 53.4904 204.37L33.1432 192.555C32.4736 192.185 32.2505 191.296 32.6225 190.63C32.9944 189.963 33.8872 189.741 34.5567 190.111L54.8295 201.926C56.1687 202.593 57.6938 202.704 59.1073 202.259C60.558 201.778 61.7111 200.815 62.4179 199.444C63.943 196.518 62.9387 193.518 59.9256 191.852C59.8884 191.852 59.8884 191.815 59.8513 191.815L41.6243 180.222C39.9132 179.148 37.9417 178.481 35.933 178.296L20.0496 176.852C19.6404 176.815 19.2685 176.815 18.8593 176.815C15.8834 176.815 13.0564 177.852 10.7501 179.741C8.14629 181.889 6.5468 184.963 6.21202 188.333L5.61682 194.963C5.39363 197.37 6.73275 199.667 8.96462 200.63L36.0074 212.407C39.5412 213.926 43.4099 214.407 47.2412 213.741ZM60.2976 120.74C39.8388 120.74 23.2114 137.296 23.2114 157.666C23.2114 163.815 24.7365 169.629 27.4148 174.704L36.1563 175.481C38.6113 175.704 41.0292 176.518 43.1122 177.852L50.2542 182.37V177.185H47.6503C46.8692 177.185 46.2368 176.555 46.2368 175.778C46.2368 175 46.8692 174.37 47.6503 174.37H50.2542V140.333H47.6503C46.8692 140.333 46.2368 139.703 46.2368 138.926C46.2368 138.148 46.8692 137.518 47.6503 137.518H50.2542V131.518C50.2542 130.74 50.8866 130.111 51.6677 130.111C52.4489 130.111 53.0813 130.74 53.0813 131.518V137.518H61.0044V131.518C61.0044 130.74 61.6367 130.111 62.4179 130.111C63.199 130.111 63.8314 130.74 63.8314 131.518V137.518H64.9102C70.6387 137.518 75.3256 142.148 75.3256 147.889C75.3256 151.185 73.8005 154.111 71.4198 156.074C76.1439 157.407 79.6033 161.704 79.6033 166.815C79.6033 172.518 74.9536 177.185 69.1879 177.185H63.757V182.667C63.757 183.444 63.1246 184.074 62.3435 184.074C61.5623 184.074 60.93 183.444 60.93 182.667V177.185H53.0069V184.148L61.2648 189.407C63.1991 190.481 64.5382 192 65.2822 193.741L81.612 187.815C91.1346 181.111 97.3838 170.111 97.3838 157.629C97.3838 137.296 80.7564 120.74 60.2976 120.74ZM53.044 140.407V155.704H64.687C68.9647 155.704 72.4613 152.222 72.4613 147.963C72.4613 143.778 69.0391 140.407 64.873 140.407H53.044V140.407ZM64.687 158.481H53.044V174.407H69.1135C73.3168 174.407 76.7019 171 76.7019 166.852C76.7019 162.222 72.9077 158.481 68.2951 158.481H64.687V158.481ZM226.869 178.222C231.222 190.222 229.882 202.296 223.15 212.222C215.636 223.259 202.468 229.889 186.993 230.407H186.882C186.026 230.444 184.799 230.481 183.422 230.481C179.256 230.481 173.23 230.148 168.469 228.63L160.881 229.074C160.843 229.074 160.843 229.074 160.806 229.074C141.538 229.074 124.389 218.259 118.735 203.741C117.768 201.222 117.099 198.593 116.876 195.926C116.801 195.185 116.764 194.444 116.69 193.667C116.652 193.074 116.615 192.444 116.541 191.852C116.132 186.815 116.206 169.333 135.512 156.481C135.549 156.481 137.409 155.222 139.678 152.963C140.905 151.778 141.947 150.555 142.877 149.296C141.538 148.259 140.831 146.629 141.128 144.963C141.389 143.481 142.244 142.555 143.323 141.963C143.063 141.666 142.914 141.444 142.802 141.259C141.612 139.518 141.724 138 142.021 137.074C142.691 135 144.774 133.666 146.076 133C144.067 127.407 138.711 122.666 131.011 119.74C130.527 119.555 130.192 119.111 130.118 118.629C129.932 117.333 132.573 114.926 133.801 114.037C137.669 111.222 146.336 107.592 161.736 114.37C163.522 111.889 168.506 105.666 175.127 103.777C176.355 103.444 177.694 103.629 178.736 104.333C179.74 105.037 180.372 106.111 180.484 107.333C180.595 108.481 181.265 111.074 181.823 112.963C188.481 109.889 194.321 109.185 199.157 109.666C204.997 110.259 209.461 112.555 212.251 114.518C216.231 117.296 216.119 118.296 216.082 118.629C216.008 119.148 215.673 119.592 215.189 119.777C206.634 123.037 200.943 128.592 199.603 135.037C202.282 135.74 203.918 136.703 204.7 138.074C205.295 139.074 205.332 140.259 204.885 141.592C204.29 143.259 202.802 144.592 200.905 145.222C202.17 148.037 204.179 150.815 206.894 153.407C207.675 154.148 209.498 155.629 210.986 156.815C212.028 157.629 212.92 158.37 213.367 158.741C219.43 164.185 224.377 171.296 226.869 178.222ZM224.228 179.148C221.885 172.667 217.198 165.963 211.395 160.741C211.023 160.407 210.13 159.666 209.163 158.889C207.564 157.629 205.778 156.185 204.885 155.333C201.724 152.296 199.417 149.037 198.004 145.703C188.258 147.185 173.565 147.333 167.874 147.333C166.535 147.333 165.679 147.333 165.53 147.333C154.892 147.222 149.163 145.592 146.076 144C145.109 144.111 143.993 144.481 143.844 145.444C143.695 146.222 144.253 147.074 145.071 147.37C147.155 148.148 161.215 149.815 172.523 151.185C183.199 152.444 189.82 153.259 191.383 153.703C201.166 156.444 210.763 164.037 208.419 177.111C208.382 177.259 208.345 177.37 208.308 177.481C209.163 178.259 209.684 179.333 209.721 180.555C209.721 181.704 209.312 182.778 208.531 183.592C207.75 184.407 206.671 184.852 205.518 184.889C205.481 184.889 205.481 184.889 205.443 184.889C204.328 184.889 203.286 184.481 202.468 183.704C201.649 182.926 201.203 181.852 201.166 180.704C201.166 179.555 201.575 178.481 202.356 177.667C203.137 176.852 204.216 176.407 205.369 176.37C205.406 176.37 205.406 176.37 205.443 176.37C205.518 176.37 205.63 176.37 205.704 176.37C208.047 162.407 194.768 157.555 190.639 156.37C189.225 155.963 180.558 154.926 172.226 153.926C159.244 152.37 149.424 151.185 145.555 150.333C144.476 151.889 143.174 153.407 141.686 154.889C139.194 157.37 137.185 158.666 137.111 158.741C119.107 170.741 118.996 186.889 119.405 191.555C119.442 192.185 119.517 192.778 119.554 193.407C119.591 194.148 119.665 194.889 119.74 195.63C121.228 212.481 139.678 226.222 160.843 226.222L168.58 225.778C175.35 224.815 180.93 223 185.171 220.37C185.84 219.963 186.696 220.148 187.105 220.815C187.514 221.481 187.328 222.333 186.659 222.741C183.608 224.63 179.963 226.111 175.76 227.185C180.447 227.741 185.096 227.63 186.845 227.556H186.993C201.575 227.074 213.925 220.889 220.918 210.593C227.055 201.481 228.283 190.296 224.228 179.148ZM205.406 179.185C204.997 179.185 204.625 179.333 204.365 179.629C204.104 179.889 203.956 180.259 203.956 180.667C203.956 181.037 204.104 181.407 204.402 181.704C204.7 181.963 205.071 182.111 205.443 182.111C205.815 182.111 206.187 181.963 206.485 181.667C206.745 181.37 206.894 181.037 206.894 180.629C206.857 179.815 206.225 179.185 205.406 179.185ZM133.689 117.852C142.207 121.555 147.899 127.518 149.349 134.407C149.907 137 149.833 139.666 149.238 142.333C152.176 143.407 157.198 144.444 165.567 144.518C165.791 144.518 185.171 144.703 197.111 143C196.33 140.185 196.218 137.333 196.776 134.518C198.19 127.629 203.732 121.666 212.139 117.963C208.568 114.963 198.19 108.37 182.79 115.592C183.534 117.037 184.464 118.333 185.543 119.407C186.101 119.963 186.063 120.852 185.505 121.37C185.245 121.629 184.873 121.777 184.538 121.777C184.166 121.777 183.794 121.629 183.534 121.37C181.934 119.74 180.633 117.74 179.665 115.518C179.665 115.481 179.628 115.444 179.628 115.407C179.628 115.407 179.628 115.37 179.591 115.37C179.405 114.815 177.88 109.703 177.694 107.592C177.657 107.185 177.471 106.852 177.136 106.629C176.801 106.407 176.318 106.333 175.908 106.444C168.804 108.444 163.484 116.777 163.447 116.852C163.447 116.852 163.447 116.852 163.447 116.889C163.447 116.889 163.447 116.889 163.447 116.926C161.848 119.259 160.955 121.037 160.955 121.037C160.695 121.518 160.211 121.815 159.69 121.815C159.467 121.815 159.281 121.777 159.058 121.666C158.351 121.333 158.091 120.481 158.425 119.777C158.463 119.703 159.058 118.518 160.174 116.74C143.695 109.703 136.107 115.222 133.689 117.852ZM199.231 137.852C199.194 139.407 199.417 141 199.864 142.555C200.98 142.222 201.873 141.481 202.17 140.629C202.393 139.963 202.319 139.629 202.207 139.444C202.021 139.148 201.389 138.444 199.231 137.852ZM145.109 139.778C145.183 139.889 145.183 139.889 145.257 140C145.257 140 145.555 140.481 146.634 141.111C147.006 139.333 147.043 137.555 146.783 135.815C145.927 136.333 144.96 137.074 144.7 137.926C144.588 138.148 144.402 138.778 145.109 139.778ZM185.766 196.296C184.948 202.852 179.405 204.963 175.611 205.296V209.741C175.611 210.518 174.978 211.148 174.197 211.148C173.416 211.148 172.784 210.518 172.784 209.741V205.259C164.898 204.37 162.182 197.407 161.885 193.667C161.81 192.889 162.406 192.222 163.15 192.148C163.931 192.074 164.6 192.667 164.675 193.407C164.712 193.778 165.493 201.37 172.784 202.444V186.333C170.217 185.555 166.497 183.963 164.675 180.963C163.596 179.185 163.298 177.185 163.856 175C163.968 174.37 164.749 170.629 167.948 168.333C169.324 167.333 170.961 166.778 172.784 166.629V163.815C172.784 163.037 173.416 162.407 174.197 162.407C174.978 162.407 175.611 163.037 175.611 163.815V166.704C175.908 166.741 176.243 166.778 176.541 166.852C180.223 167.518 183.199 169.778 184.576 172.926C185.134 174.222 185.431 175.667 185.431 177.148C185.431 177.926 184.799 178.555 184.018 178.555C183.236 178.555 182.604 177.926 182.604 177.148C182.604 176.037 182.381 175 181.972 174.037C181.005 171.778 178.773 170.111 176.02 169.629C175.871 169.592 175.722 169.592 175.574 169.555V184.222L176.466 184.481C177.582 184.815 178.475 185.148 179.256 185.518C185.543 188.555 186.249 193.852 185.766 196.296ZM178.066 188C177.434 187.667 176.69 187.407 175.722 187.148L175.611 187.111V202.481C177.917 202.222 182.381 201.037 183.013 195.926C183.013 195.889 183.013 195.852 183.05 195.778C183.05 195.593 183.906 190.889 178.066 188ZM167.055 179.518C168.246 181.481 170.812 182.704 172.784 183.407V169.444C171.556 169.592 170.478 169.963 169.585 170.629C167.13 172.37 166.609 175.481 166.609 175.518C166.609 175.555 166.609 175.629 166.572 175.667C166.2 177.111 166.349 178.37 167.055 179.518Z" fill="url(#paint0_linear_1_1894)"/>
<defs>
<linearGradient id="paint0_linear_1_1894" x1="19.6235" y1="30.7927" x2="212.132" y2="224.137" gradientUnits="userSpaceOnUse">
<stop stop-color="#1EB4FF"/>
<stop offset="1" stop-color="#5C52B3"/>
</linearGradient>
</defs>
</svg>
